<svg xmlns="http://www.w3.org/2000/svg" enable-background="new 0 0 24 24" viewBox="0 0 24 24"><path fill="#77BC21" d="M18.5,2h-13C4.119812,2.0012817,3.0012817,3.119812,3,4.5v12c0.0012817,1.380188,1.119812,2.4987183,2.5,2.5h3.2930298l2.8534546,2.8535156C11.7401123,21.9474487,11.8673706,22.0001831,12,22c0.1326294,0.0001221,0.2598267-0.0525513,0.3535156-0.1464844L15.2069702,19H18.5c1.380188-0.0012817,2.4987183-1.119812,2.5-2.5v-12C20.9987183,3.119812,19.880188,2.0012817,18.5,2z M20,16.5c-0.0009155,0.828064-0.671936,1.4990845-1.5,1.5H15c-0.1326294,0-0.2597656,0.0526733-0.3535156,0.1464844L12,20.7929688l-2.6464844-2.6464844C9.2597656,18.0526733,9.1326294,18,9,18H5.5c-0.828064-0.0009155-1.4990845-0.671936-1.5-1.5v-12C4.0009155,3.671936,4.671936,3.0009155,5.5,3h13c0.828064,0.0009155,1.4990845,0.671936,1.5,1.5V16.5z"/></svg>