<svg id="SvgjsSvg1001" width="288" height="288" xmlns="http://www.w3.org/2000/svg" version="1.1" xmlns:xlink="http://www.w3.org/1999/xlink" xmlns:svgjs="http://svgjs.com/svgjs"><defs id="SvgjsDefs1002"></defs><g id="SvgjsG1008" transform="matrix(1,0,0,1,0,0)"><svg xmlns="http://www.w3.org/2000/svg" enable-background="new 0 0 153 187" viewBox="0 0 153 187" width="288" height="288"><g transform="translate(14)" fill="#000000" class="color000 svgShape"><path fill="#77bc21" d="M138,141.2c-3.6,0.5-7.3,0.8-11,0.8c-29.6,0-55.4-16.5-68.6-40.9c-6-11-9.4-23.7-9.4-37.1				c0-26.5,13.2-49.9,33.4-64H138v129.5" opacity=".2" class="colorfff svgShape"></path><path fill="#77bc21" d="M138,141.2V187H-15c0.2-43.3,31.9-79.1,73.4-85.9c4.6-0.8,9.3-1.1,14.1-1.1c26.1,0,49.5,11.4,65.5,29.5" opacity=".2" class="colorfff svgShape"></path></g></svg></g></svg>