<svg xmlns="http://www.w3.org/2000/svg" enable-background="new 0 0 24 24" viewBox="0 0 24 24"><path fill="#6563ff" d="M11.7807617,13.5546875c-0.1668701-0.1097412-0.3832397-0.1090088-0.5493164,0.0019531c-0.1113281,0.0742188-2.7236328,1.8369141-2.7236328,4.4794922c0.019104,1.6387939,1.361145,2.9528809,3,2.9375c1.6387939,0.0153809,2.980835-1.2987061,2.999939-2.9375C14.5077515,15.3613281,11.8920898,13.6269531,11.7807617,13.5546875z M11.5710449,19.9728394c-1.1045532,0.0349121-2.0283203-0.8322144-2.0632324-1.9367676c0.1488647-1.3786621,0.876709-2.6290894,2.0020142-3.4394531l-0.000061,0.000061c1.1298218,0.805603,1.8578491,2.0588989,1.9980469,3.4393921C13.4744263,19.0915527,12.6265869,19.9394531,11.5710449,19.9728394z M22.8876343,7.7773438c0.0143433-0.0874023,0.005249-0.177002-0.0264282-0.2597046c-0.0986938-0.2578125-0.3876343-0.3868408-0.6454468-0.288147c-0.3922729,0.1489868-0.8081665,0.2262573-1.2277832,0.2282104c-1.9352417,0.0089111-3.5112915-1.5526733-3.5202026-3.4879761c0.0031738-0.4271851,0.0845947-0.8501587,0.2402344-1.2480469c0.0316162-0.0827026,0.0407715-0.1723022,0.0263672-0.2597046c-0.0447388-0.2723999-0.3018188-0.4569092-0.5742188-0.4121704c-2.144165,0.3504639-3.7736206,2.0418091-4.1084595,4.1380615c-0.5090942-0.1395264-1.0392456-0.2203369-1.5839233-0.2181396c-2.9934082,0.0124512-5.5176392,2.2337036-5.9106445,5.2011719c-1.8079834,0.465332-2.9187622,2.2833862-2.5078125,4.1044922c0.3776855,1.5755005,1.7836914,2.6884766,3.4038086,2.6943359h0.0151367v-0.000061c0.2702026-0.0003662,0.4912109-0.21521,0.4992065-0.4852905c0.0082397-0.276062-0.2089844-0.5065308-0.4850464-0.5147095c-1.1556396-0.0045776-2.1635132-0.7861938-2.4555664-1.9042969c-0.1535645-0.680481-0.0131836-1.394165,0.3867188-1.9658203c0.3920288-0.5554199,0.9972534-0.9229736,1.6708984-1.0146484c0.2357788-0.0313721,0.416687-0.2246094,0.4326172-0.4619141c0.1737061-2.6098022,2.335144-4.6414185,4.9506836-4.6532593c0.6331177-0.0023804,1.2404175,0.1290894,1.8069458,0.3508911c0.0066528,0.0030518,0.0094604,0.0106201,0.0162964,0.0133667c0.9483032,0.3756714,1.7461548,1.0331421,2.3022461,1.8682251c0.0147095,0.0224609,0.0305176,0.0439453,0.0449219,0.0667114c0.1775513,0.2762451,0.3314819,0.5696411,0.4526367,0.8804932c0.0594482,0.1535645,0.1904907,0.2681885,0.3505859,0.3066406c0.178894,0.0440063,0.3519287,0.1045532,0.5192261,0.1767578c0.0264282,0.0112305,0.0510864,0.0252686,0.0771484,0.0372314c0.1434937,0.0664062,0.2825928,0.1413574,0.4147949,0.2272949c0.0210571,0.0135498,0.041626,0.0276489,0.0623169,0.041687c0.1462402,0.0999146,0.2861938,0.2091064,0.4150391,0.331543c0.0001831,0.0001221,0.0003052,0.0003662,0.0004883,0.0004883c0.1381226,0.1313477,0.2655029,0.2750854,0.380127,0.4301147c0.0059204,0.0079346,0.0157471,0.0109863,0.0220947,0.0184937c0.2668457,0.3656006,0.4611206,0.7878418,0.5604858,1.2467651c0.3855591,1.7816772-0.7462158,3.5385742-2.5278931,3.9241333c-0.2695923,0.0569458-0.4423218,0.321228-0.3861694,0.5910034c0.0562744,0.2702637,0.3209839,0.4437866,0.5912476,0.3875122c1.5244141-0.3274536,2.7521973-1.4543457,3.2089233-2.9451294c0.3395996-1.1085815,0.203064-2.2462769-0.2835693-3.2043457C21.2575073,11.1517944,22.585083,9.6439819,22.8876343,7.7773438z M18.9101562,10.8515625c-0.1135254-0.1314697-0.237793-0.251709-0.3654175-0.3677979c-0.1008911-0.0914917-0.208313-0.1741943-0.3184814-0.2562866c-0.1148682-0.0860596-0.2319946-0.1676636-0.3547974-0.2417603c-0.0869141-0.052063-0.1738281-0.1022339-0.2651978-0.1484375c-0.2085571-0.1065674-0.4235229-0.2006836-0.6483154-0.2723999c-0.0109863-0.003479-0.0202026-0.0097656-0.031189-0.0131226c-0.1417236-0.3302612-0.319397-0.6359863-0.5133057-0.9286499c-0.0073242-0.0108643-0.0155029-0.020813-0.0228882-0.0315552c-0.6028442-0.8968506-1.4268799-1.6110229-2.3896484-2.062439c0.166748-1.4777832,1.1398315-2.7419434,2.5283813-3.2781372c-0.0407715,0.2374268-0.0613403,0.4778442-0.0615234,0.71875c0.0010986,0.2281494,0.0195312,0.4558716,0.0550537,0.6812744c0.3883667,2.4634399,2.7002563,4.1455688,5.1636963,3.7572021C21.2185059,9.6292114,20.1807251,10.5425415,18.9101562,10.8515625z"/></svg>