<svg xmlns="http://www.w3.org/2000/svg" enable-background="new 0 0 24 24" viewBox="0 0 24 24"><path fill="#6563ff" d="M17.5,8h-11C6.223877,8,6,8.223877,6,8.5S6.223877,9,6.5,9h11C17.776123,9,18,8.776123,18,8.5S17.776123,8,17.5,8z M13.5,11h-7C6.223877,11,6,11.223877,6,11.5S6.223877,12,6.5,12h7c0.276123,0,0.5-0.223877,0.5-0.5S13.776123,11,13.5,11z M19,2H5C3.3438721,2.0018311,2.0018311,3.3438721,2,5v10c0.0018311,1.6561279,1.3438721,2.9981689,3,3h12.2930298l3.8534546,3.8535156C21.2402344,21.9473267,21.3673706,22,21.5,22c0.276123,0,0.5-0.223877,0.5-0.5V5C21.9981689,3.3438721,20.6561279,2.0018311,19,2z M21,20.2929688l-3.1464844-3.1464844C17.7597656,17.0526733,17.6326294,17,17.5,17H5c-1.1040039-0.0014038-1.9985962-0.8959961-2-2V5c0.0014038-1.1040039,0.8959961-1.9985962,2-2h14c1.1040039,0.0014038,1.9985962,0.8959961,2,2V20.2929688z"/></svg>