<?xml version="1.0" encoding="UTF-8"?>
<svg xmlns="http://www.w3.org/2000/svg" xmlns:xlink="http://www.w3.org/1999/xlink" width="50px" height="50px" viewBox="0 0 50 50" version="1.1">
<g id="surface1">
<path style=" stroke:none;fill-rule:nonzero;fill:rgb(43.921569%,79.215686%,30.196078%);fill-opacity:1;" d="M 7.40625 31.855469 C 7.253906 31.800781 7.097656 31.765625 6.941406 31.746094 C 6.945312 31.882812 6.828125 32.042969 6.609375 32.054688 C 6.511719 32.0625 6.324219 32.035156 6.226562 32.011719 C 5.953125 31.953125 5.644531 32.042969 5.421875 32.25 C 5.550781 32.085938 5.679688 31.921875 5.832031 31.785156 C 5.988281 31.648438 6.183594 31.457031 6.378906 31.433594 C 6.5625 31.410156 6.847656 31.4375 6.925781 31.671875 C 7.042969 31.683594 7.160156 31.707031 7.273438 31.738281 C 7.066406 31.546875 6.863281 31.347656 6.671875 31.136719 C 6.667969 31.136719 6.664062 31.136719 6.660156 31.132812 C 6.496094 31.074219 6.324219 31.03125 6.148438 31.007812 C 6.15625 31.148438 6.039062 31.308594 5.816406 31.320312 C 5.71875 31.324219 5.53125 31.300781 5.4375 31.277344 C 5.160156 31.214844 4.851562 31.304688 4.632812 31.511719 C 4.757812 31.351562 4.886719 31.183594 5.042969 31.050781 C 5.195312 30.914062 5.390625 30.722656 5.585938 30.699219 C 5.769531 30.675781 6.054688 30.703125 6.136719 30.933594 C 6.285156 30.953125 6.433594 30.984375 6.578125 31.03125 C 6.398438 30.828125 6.226562 30.613281 6.066406 30.394531 C 5.902344 30.332031 5.730469 30.289062 5.554688 30.269531 C 5.5625 30.40625 5.445312 30.570312 5.222656 30.582031 C 5.125 30.585938 4.9375 30.558594 4.84375 30.539062 C 4.566406 30.476562 4.257812 30.566406 4.039062 30.773438 C 4.167969 30.609375 4.296875 30.445312 4.449219 30.308594 C 4.601562 30.175781 4.800781 29.980469 4.992188 29.957031 C 5.179688 29.933594 5.460938 29.960938 5.542969 30.195312 C 5.695312 30.214844 5.847656 30.246094 5.992188 30.292969 C 5.917969 30.1875 5.84375 30.078125 5.769531 29.96875 C 5.710938 29.875 5.652344 29.78125 5.597656 29.6875 C 5.464844 29.589844 5.324219 29.511719 5.179688 29.445312 C 5.152344 29.585938 5 29.707031 4.789062 29.65625 C 4.691406 29.632812 4.523438 29.554688 4.4375 29.507812 C 4.1875 29.367188 3.875 29.367188 3.613281 29.507812 C 3.773438 29.382812 3.9375 29.261719 4.117188 29.171875 C 4.292969 29.082031 4.527344 28.949219 4.71875 28.980469 C 4.902344 29.011719 5.164062 29.117188 5.183594 29.371094 C 5.296875 29.417969 5.40625 29.476562 5.507812 29.539062 C 5.339844 29.246094 5.183594 28.941406 5.046875 28.625 C 4.921875 28.507812 4.789062 28.402344 4.648438 28.3125 C 4.601562 28.445312 4.441406 28.546875 4.238281 28.460938 C 4.144531 28.425781 3.988281 28.320312 3.910156 28.261719 C 3.679688 28.085938 3.371094 28.039062 3.097656 28.140625 C 3.273438 28.039062 3.445312 27.878906 3.632812 27.820312 C 3.820312 27.757812 4.070312 27.71875 4.25 27.777344 C 4.429688 27.835938 4.671875 27.980469 4.660156 28.234375 C 4.769531 28.300781 4.875 28.378906 4.976562 28.464844 C 4.855469 28.183594 4.75 27.898438 4.652344 27.605469 C 4.652344 27.601562 4.648438 27.601562 4.644531 27.597656 C 4.527344 27.464844 4.394531 27.347656 4.25 27.242188 C 4.199219 27.375 4.03125 27.46875 3.832031 27.375 C 3.742188 27.332031 3.589844 27.21875 3.515625 27.15625 C 3.296875 26.96875 2.988281 26.902344 2.710938 26.992188 C 2.890625 26.898438 3.074219 26.75 3.265625 26.699219 C 3.453125 26.648438 3.699219 26.621094 3.878906 26.691406 C 4.050781 26.757812 4.289062 26.914062 4.265625 27.167969 C 4.386719 27.253906 4.5 27.347656 4.605469 27.453125 C 4.511719 27.144531 4.429688 26.832031 4.363281 26.515625 C 4.363281 26.503906 4.332031 26.375 4.257812 26.175781 C 4.148438 26.238281 3.984375 26.207031 3.878906 26.023438 C 3.828125 25.933594 3.761719 25.746094 3.734375 25.644531 C 3.652344 25.351562 3.433594 25.113281 3.167969 25.023438 C 3.355469 25.050781 3.546875 25.082031 3.726562 25.148438 C 3.90625 25.21875 4.152344 25.292969 4.261719 25.460938 C 4.371094 25.621094 4.480469 25.898438 4.335938 26.105469 C 4.382812 26.226562 4.417969 26.355469 4.449219 26.484375 C 4.449219 26.484375 4.449219 26.488281 4.449219 26.488281 C 4.453125 26.496094 4.453125 26.5 4.453125 26.507812 C 4.457031 26.511719 4.457031 26.511719 4.457031 26.515625 C 4.496094 26.707031 4.542969 26.894531 4.589844 27.078125 C 4.617188 26.941406 4.652344 26.800781 4.699219 26.667969 C 4.695312 26.667969 4.695312 26.664062 4.695312 26.664062 C 4.507812 26.484375 4.613281 26.179688 4.71875 26.003906 C 4.824219 25.824219 5.035156 25.675781 5.21875 25.585938 C 5.398438 25.496094 5.628906 25.484375 5.824219 25.433594 C 5.550781 25.554688 5.339844 25.816406 5.269531 26.113281 C 5.246094 26.21875 5.1875 26.410156 5.140625 26.507812 C 5.039062 26.703125 4.871094 26.753906 4.753906 26.703125 C 4.699219 26.875 4.65625 27.050781 4.632812 27.230469 C 4.71875 27.535156 4.820312 27.832031 4.933594 28.125 C 4.957031 27.953125 5 27.78125 5.054688 27.617188 C 4.898438 27.433594 5.003906 27.136719 5.101562 26.960938 C 5.207031 26.78125 5.414062 26.625 5.589844 26.53125 C 5.769531 26.4375 5.992188 26.425781 6.183594 26.371094 C 5.917969 26.5 5.710938 26.765625 5.636719 27.070312 C 5.613281 27.175781 5.550781 27.371094 5.503906 27.46875 C 5.398438 27.683594 5.214844 27.730469 5.105469 27.664062 C 5.046875 27.84375 5.007812 28.03125 4.984375 28.21875 C 4.984375 28.226562 4.980469 28.234375 4.976562 28.238281 C 5.007812 28.320312 5.042969 28.398438 5.078125 28.480469 C 5.167969 28.691406 5.269531 28.902344 5.378906 29.105469 C 5.40625 28.945312 5.441406 28.785156 5.492188 28.632812 C 5.339844 28.449219 5.441406 28.152344 5.542969 27.976562 C 5.648438 27.796875 5.855469 27.640625 6.03125 27.546875 C 6.207031 27.453125 6.433594 27.441406 6.621094 27.386719 C 6.359375 27.515625 6.148438 27.78125 6.078125 28.085938 C 6.054688 28.191406 5.992188 28.386719 5.945312 28.484375 C 5.839844 28.699219 5.65625 28.746094 5.546875 28.679688 C 5.492188 28.847656 5.453125 29.023438 5.429688 29.203125 C 5.574219 29.472656 5.726562 29.730469 5.894531 29.980469 C 5.921875 29.804688 5.960938 29.628906 6.015625 29.460938 C 5.863281 29.277344 5.964844 28.980469 6.066406 28.804688 C 6.171875 28.625 6.378906 28.46875 6.554688 28.375 C 6.730469 28.28125 6.957031 28.269531 7.144531 28.210938 C 6.882812 28.34375 6.671875 28.609375 6.601562 28.914062 C 6.578125 29.019531 6.515625 29.214844 6.46875 29.3125 C 6.363281 29.527344 6.179688 29.574219 6.070312 29.503906 C 6.011719 29.6875 5.972656 29.875 5.949219 30.0625 C 6.101562 30.289062 6.265625 30.507812 6.4375 30.71875 C 6.460938 30.535156 6.503906 30.359375 6.5625 30.1875 C 6.410156 30.007812 6.511719 29.714844 6.609375 29.542969 C 6.710938 29.363281 6.917969 29.210938 7.089844 29.117188 C 7.265625 29.027344 7.488281 29.011719 7.675781 28.957031 C 7.414062 29.085938 7.207031 29.347656 7.136719 29.648438 C 7.113281 29.753906 7.054688 29.945312 7.003906 30.042969 C 6.902344 30.253906 6.722656 30.300781 6.613281 30.234375 C 6.554688 30.410156 6.515625 30.597656 6.492188 30.785156 C 6.664062 30.992188 6.84375 31.1875 7.03125 31.371094 C 7.054688 31.199219 7.097656 31.027344 7.152344 30.859375 C 7 30.675781 7.101562 30.382812 7.203125 30.207031 C 7.304688 30.023438 7.511719 29.871094 7.6875 29.777344 C 7.867188 29.683594 8.089844 29.667969 8.28125 29.613281 C 8.015625 29.742188 7.808594 30.011719 7.734375 30.3125 C 7.710938 30.417969 7.652344 30.617188 7.601562 30.710938 C 7.496094 30.925781 7.316406 30.972656 7.207031 30.90625 C 7.152344 31.078125 7.109375 31.253906 7.085938 31.429688 C 7.109375 31.453125 7.128906 31.476562 7.152344 31.496094 C 8.082031 32.390625 9.195312 33.066406 10.398438 33.460938 C 10.453125 33.480469 10.429688 33.570312 10.375 33.554688 C 9.695312 33.332031 9.042969 33.019531 8.4375 32.628906 C 8.074219 32.398438 7.730469 32.136719 7.40625 31.855469 Z M 5.539062 38.347656 C 5.628906 38.609375 6.15625 38.632812 6.375 38.640625 C 6.628906 38.652344 7.011719 38.625 7.609375 38.375 C 7.917969 38.246094 8.324219 38.074219 8.742188 37.730469 C 8.761719 37.714844 8.78125 37.699219 8.796875 37.683594 C 8.855469 37.632812 8.917969 37.582031 8.976562 37.523438 C 9.140625 37.355469 10.210938 36.304688 9.972656 35.15625 C 9.960938 35.101562 9.8125 34.425781 9.457031 34.363281 C 9.011719 34.285156 8.554688 35.210938 8.371094 35.113281 C 8.277344 35.066406 8.367188 34.824219 8.371094 34.511719 C 8.378906 33.808594 7.964844 32.910156 7.355469 32.792969 C 7.066406 32.738281 6.722656 32.855469 6.515625 33.101562 C 6.183594 33.503906 6.523438 34.214844 6.460938 34.234375 C 6.371094 34.261719 6.132812 32.757812 5.3125 32.5 C 5.023438 32.410156 4.636719 32.46875 4.488281 32.679688 C 4.273438 32.992188 4.664062 33.507812 4.519531 33.617188 C 4.367188 33.734375 3.957031 33.140625 3.183594 33.003906 C 2.984375 32.96875 2.523438 32.886719 2.226562 33.164062 C 1.972656 33.40625 1.910156 33.832031 2.050781 34.152344 C 2.1875 34.445312 2.460938 34.574219 2.539062 34.605469 C 3.03125 34.824219 3.339844 34.507812 4.210938 34.589844 C 4.515625 34.617188 4.851562 34.691406 4.859375 34.792969 C 4.863281 34.871094 4.679688 34.894531 4.492188 35.089844 C 4.488281 35.09375 4.480469 35.097656 4.476562 35.105469 C 4.417969 35.167969 4.214844 35.382812 4.230469 35.660156 C 4.230469 35.671875 4.246094 35.976562 4.449219 36.085938 C 4.554688 36.144531 4.664062 36.125 4.714844 36.117188 C 5.199219 36.039062 5.828125 36.09375 5.84375 36.175781 C 5.867188 36.265625 5.082031 36.382812 5.050781 36.6875 C 5.027344 36.941406 5.53125 37.1875 5.597656 37.21875 C 6.140625 37.472656 6.710938 37.363281 6.710938 37.40625 C 6.714844 37.445312 6.246094 37.417969 5.875 37.714844 C 5.703125 37.855469 5.464844 38.136719 5.539062 38.347656 Z M 5.539062 38.347656 "/>
<path style=" stroke:none;fill-rule:nonzero;fill:rgb(100%,100%,100%);fill-opacity:1;" d="M 5.734375 35.851562 C 5.753906 35.867188 5.769531 35.859375 5.785156 35.84375 C 5.886719 35.738281 6.03125 35.667969 6.175781 35.652344 C 6.179688 35.652344 6.183594 35.652344 6.183594 35.652344 C 6.195312 35.652344 6.207031 35.652344 6.21875 35.648438 C 6.433594 35.636719 6.664062 35.617188 6.867188 35.722656 C 6.867188 35.726562 6.867188 35.726562 6.871094 35.726562 C 6.871094 35.726562 6.871094 35.730469 6.871094 35.730469 C 6.894531 35.757812 6.925781 35.78125 6.957031 35.792969 C 7.09375 35.9375 7.226562 36.089844 7.355469 36.238281 C 7.230469 36.242188 7.105469 36.214844 7 36.152344 C 6.980469 36.140625 6.960938 36.144531 6.949219 36.160156 C 6.9375 36.171875 6.941406 36.199219 6.957031 36.207031 C 7.089844 36.285156 7.242188 36.320312 7.398438 36.308594 C 7.402344 36.308594 7.40625 36.308594 7.410156 36.304688 C 7.5625 36.476562 7.710938 36.652344 7.863281 36.824219 C 8.015625 37 8.171875 37.171875 8.335938 37.335938 C 8.167969 37.390625 8 37.453125 7.828125 37.484375 C 7.664062 37.511719 7.46875 37.492188 7.355469 37.351562 C 7.324219 37.320312 7.269531 37.363281 7.300781 37.398438 C 7.386719 37.503906 7.515625 37.554688 7.652344 37.5625 C 7.558594 37.652344 7.484375 37.753906 7.433594 37.871094 C 7.414062 37.914062 7.480469 37.9375 7.5 37.898438 C 7.554688 37.769531 7.640625 37.660156 7.746094 37.570312 C 7.75 37.566406 7.75 37.566406 7.75 37.5625 C 7.765625 37.5625 7.78125 37.5625 7.796875 37.558594 C 7.894531 37.546875 7.992188 37.519531 8.085938 37.488281 C 8.1875 37.457031 8.289062 37.425781 8.390625 37.394531 C 8.503906 37.507812 8.621094 37.621094 8.742188 37.730469 C 8.761719 37.714844 8.78125 37.699219 8.796875 37.683594 C 8.746094 37.640625 8.699219 37.597656 8.652344 37.550781 C 8.707031 37.484375 8.707031 37.386719 8.6875 37.308594 C 8.671875 37.222656 8.636719 37.132812 8.671875 37.050781 C 8.691406 37.011719 8.625 36.984375 8.609375 37.027344 C 8.570312 37.109375 8.59375 37.199219 8.613281 37.285156 C 8.628906 37.355469 8.644531 37.4375 8.597656 37.5 C 8.542969 37.445312 8.484375 37.390625 8.425781 37.332031 C 8.226562 37.128906 8.035156 36.914062 7.847656 36.699219 C 7.851562 36.699219 7.851562 36.695312 7.851562 36.695312 C 7.910156 36.441406 7.84375 36.183594 7.75 35.949219 C 7.738281 35.921875 7.722656 35.890625 7.710938 35.859375 C 7.714844 35.855469 7.71875 35.851562 7.71875 35.847656 C 7.949219 35.722656 8.144531 35.554688 8.300781 35.34375 C 8.328125 35.308594 8.269531 35.269531 8.242188 35.304688 C 8.09375 35.503906 7.902344 35.667969 7.683594 35.789062 C 7.648438 35.707031 7.613281 35.625 7.582031 35.542969 C 7.539062 35.421875 7.503906 35.296875 7.535156 35.171875 C 7.542969 35.125 7.472656 35.121094 7.464844 35.164062 C 7.4375 35.285156 7.460938 35.40625 7.5 35.519531 C 7.546875 35.65625 7.605469 35.785156 7.660156 35.917969 C 7.753906 36.144531 7.832031 36.386719 7.789062 36.632812 C 7.753906 36.589844 7.71875 36.550781 7.683594 36.507812 C 7.273438 36.03125 6.863281 35.550781 6.390625 35.136719 C 6.378906 35.125 6.367188 35.113281 6.355469 35.105469 C 6.339844 35.03125 6.324219 34.957031 6.308594 34.886719 C 6.300781 34.839844 6.285156 34.78125 6.3125 34.738281 C 6.339844 34.699219 6.28125 34.660156 6.253906 34.695312 C 6.21875 34.75 6.222656 34.816406 6.238281 34.878906 C 6.246094 34.929688 6.257812 34.980469 6.269531 35.03125 C 6.066406 34.863281 5.847656 34.703125 5.621094 34.570312 C 5.621094 34.570312 5.621094 34.566406 5.621094 34.566406 C 5.652344 34.464844 5.628906 34.359375 5.585938 34.261719 C 5.542969 34.15625 5.476562 34.054688 5.453125 33.941406 C 5.445312 33.894531 5.375 33.90625 5.382812 33.953125 C 5.40625 34.0625 5.460938 34.15625 5.507812 34.257812 C 5.546875 34.339844 5.582031 34.4375 5.558594 34.53125 C 5.355469 34.417969 5.144531 34.320312 4.921875 34.246094 C 4.878906 34.230469 4.851562 34.296875 4.898438 34.3125 C 4.964844 34.332031 5.035156 34.359375 5.101562 34.386719 C 5.648438 34.609375 6.128906 34.972656 6.558594 35.382812 C 6.636719 35.457031 6.714844 35.539062 6.792969 35.617188 C 6.628906 35.5625 6.449219 35.566406 6.277344 35.578125 C 6.0625 35.589844 5.832031 35.605469 5.640625 35.492188 C 5.601562 35.472656 5.558594 35.527344 5.597656 35.550781 C 5.703125 35.613281 5.820312 35.640625 5.9375 35.648438 C 5.859375 35.6875 5.789062 35.738281 5.726562 35.804688 C 5.714844 35.816406 5.722656 35.84375 5.734375 35.851562 Z M 5.734375 35.851562 "/>
<path style=" stroke:none;fill-rule:nonzero;fill:rgb(43.921569%,79.215686%,30.196078%);fill-opacity:1;" d="M 41.921875 30.972656 C 42.070312 30.917969 42.226562 30.882812 42.382812 30.863281 C 42.378906 31 42.496094 31.160156 42.714844 31.171875 C 42.816406 31.179688 43 31.152344 43.097656 31.128906 C 43.371094 31.070312 43.679688 31.160156 43.902344 31.367188 C 43.773438 31.203125 43.644531 31.039062 43.492188 30.902344 C 43.335938 30.765625 43.140625 30.574219 42.949219 30.550781 C 42.761719 30.527344 42.480469 30.554688 42.398438 30.789062 C 42.28125 30.800781 42.164062 30.824219 42.050781 30.855469 C 42.261719 30.664062 42.460938 30.464844 42.652344 30.253906 C 42.65625 30.253906 42.660156 30.253906 42.664062 30.25 C 42.832031 30.191406 43 30.148438 43.175781 30.125 C 43.167969 30.265625 43.285156 30.425781 43.507812 30.4375 C 43.605469 30.441406 43.792969 30.417969 43.886719 30.394531 C 44.164062 30.332031 44.472656 30.421875 44.695312 30.628906 C 44.566406 30.46875 44.4375 30.300781 44.28125 30.167969 C 44.128906 30.03125 43.933594 29.839844 43.738281 29.816406 C 43.554688 29.792969 43.269531 29.820312 43.191406 30.050781 C 43.039062 30.070312 42.890625 30.101562 42.746094 30.148438 C 42.925781 29.945312 43.097656 29.730469 43.257812 29.511719 C 43.425781 29.449219 43.59375 29.40625 43.769531 29.386719 C 43.761719 29.523438 43.878906 29.6875 44.101562 29.699219 C 44.199219 29.703125 44.386719 29.675781 44.480469 29.65625 C 44.757812 29.59375 45.066406 29.683594 45.285156 29.890625 C 45.160156 29.726562 45.03125 29.5625 44.875 29.425781 C 44.722656 29.292969 44.527344 29.097656 44.332031 29.074219 C 44.148438 29.050781 43.863281 29.078125 43.785156 29.3125 C 43.628906 29.332031 43.480469 29.363281 43.332031 29.410156 C 43.40625 29.304688 43.480469 29.195312 43.554688 29.085938 C 43.613281 28.992188 43.671875 28.898438 43.726562 28.804688 C 43.859375 28.707031 44 28.628906 44.144531 28.5625 C 44.171875 28.703125 44.324219 28.824219 44.535156 28.773438 C 44.632812 28.75 44.800781 28.671875 44.886719 28.625 C 45.136719 28.484375 45.453125 28.484375 45.710938 28.625 C 45.550781 28.5 45.386719 28.378906 45.210938 28.289062 C 45.03125 28.199219 44.796875 28.066406 44.605469 28.097656 C 44.421875 28.128906 44.160156 28.234375 44.140625 28.488281 C 44.027344 28.535156 43.917969 28.59375 43.816406 28.65625 C 43.984375 28.363281 44.140625 28.058594 44.28125 27.742188 C 44.402344 27.625 44.535156 27.519531 44.675781 27.429688 C 44.722656 27.5625 44.886719 27.664062 45.089844 27.578125 C 45.179688 27.542969 45.335938 27.4375 45.417969 27.378906 C 45.644531 27.203125 45.953125 27.15625 46.226562 27.257812 C 46.054688 27.15625 45.878906 26.996094 45.691406 26.9375 C 45.503906 26.875 45.253906 26.835938 45.074219 26.894531 C 44.898438 26.953125 44.652344 27.097656 44.664062 27.351562 C 44.554688 27.417969 44.449219 27.496094 44.351562 27.582031 C 44.46875 27.300781 44.578125 27.015625 44.671875 26.722656 C 44.671875 26.71875 44.675781 26.71875 44.679688 26.714844 C 44.800781 26.582031 44.933594 26.464844 45.074219 26.359375 C 45.125 26.492188 45.292969 26.585938 45.492188 26.492188 C 45.582031 26.449219 45.734375 26.335938 45.808594 26.273438 C 46.027344 26.085938 46.335938 26.019531 46.613281 26.109375 C 46.433594 26.015625 46.25 25.867188 46.058594 25.816406 C 45.871094 25.765625 45.625 25.738281 45.445312 25.808594 C 45.273438 25.875 45.035156 26.03125 45.058594 26.285156 C 44.9375 26.371094 44.824219 26.464844 44.722656 26.570312 C 44.816406 26.261719 44.894531 25.949219 44.960938 25.632812 C 44.960938 25.621094 44.996094 25.492188 45.070312 25.292969 C 45.179688 25.355469 45.339844 25.324219 45.445312 25.140625 C 45.496094 25.050781 45.5625 24.863281 45.59375 24.761719 C 45.671875 24.46875 45.890625 24.230469 46.15625 24.140625 C 45.96875 24.167969 45.777344 24.199219 45.597656 24.265625 C 45.417969 24.335938 45.171875 24.410156 45.0625 24.578125 C 44.957031 24.738281 44.84375 25.015625 44.992188 25.222656 C 44.945312 25.34375 44.90625 25.472656 44.875 25.601562 C 44.875 25.601562 44.875 25.605469 44.875 25.605469 C 44.875 25.613281 44.871094 25.617188 44.871094 25.625 C 44.871094 25.628906 44.867188 25.628906 44.867188 25.632812 C 44.828125 25.824219 44.785156 26.011719 44.734375 26.195312 C 44.707031 26.058594 44.671875 25.917969 44.628906 25.785156 C 44.628906 25.785156 44.628906 25.78125 44.632812 25.78125 C 44.816406 25.601562 44.710938 25.296875 44.605469 25.121094 C 44.5 24.941406 44.289062 24.792969 44.109375 24.703125 C 43.925781 24.613281 43.695312 24.601562 43.5 24.550781 C 43.773438 24.671875 43.984375 24.933594 44.054688 25.230469 C 44.078125 25.335938 44.136719 25.527344 44.1875 25.625 C 44.285156 25.820312 44.457031 25.871094 44.570312 25.820312 C 44.625 25.992188 44.667969 26.167969 44.691406 26.347656 C 44.605469 26.652344 44.503906 26.949219 44.390625 27.242188 C 44.367188 27.070312 44.324219 26.898438 44.269531 26.734375 C 44.425781 26.550781 44.324219 26.253906 44.222656 26.078125 C 44.117188 25.898438 43.910156 25.742188 43.734375 25.648438 C 43.558594 25.554688 43.332031 25.542969 43.144531 25.488281 C 43.40625 25.617188 43.617188 25.882812 43.6875 26.1875 C 43.710938 26.292969 43.773438 26.488281 43.820312 26.585938 C 43.925781 26.800781 44.109375 26.847656 44.21875 26.78125 C 44.277344 26.960938 44.316406 27.148438 44.339844 27.335938 C 44.339844 27.34375 44.34375 27.351562 44.347656 27.355469 C 44.316406 27.4375 44.28125 27.515625 44.246094 27.597656 C 44.15625 27.808594 44.054688 28.019531 43.945312 28.222656 C 43.921875 28.0625 43.882812 27.902344 43.832031 27.75 C 43.984375 27.566406 43.882812 27.269531 43.78125 27.09375 C 43.675781 26.914062 43.46875 26.757812 43.292969 26.664062 C 43.117188 26.570312 42.890625 26.558594 42.703125 26.503906 C 42.96875 26.632812 43.175781 26.898438 43.246094 27.203125 C 43.273438 27.308594 43.332031 27.503906 43.378906 27.601562 C 43.488281 27.816406 43.667969 27.863281 43.777344 27.796875 C 43.832031 27.964844 43.871094 28.140625 43.894531 28.320312 C 43.753906 28.589844 43.597656 28.847656 43.429688 29.097656 C 43.40625 28.921875 43.363281 28.746094 43.308594 28.578125 C 43.460938 28.394531 43.359375 28.097656 43.257812 27.921875 C 43.152344 27.742188 42.945312 27.585938 42.769531 27.492188 C 42.59375 27.398438 42.367188 27.386719 42.179688 27.328125 C 42.445312 27.460938 42.652344 27.726562 42.722656 28.03125 C 42.75 28.136719 42.808594 28.332031 42.855469 28.429688 C 42.964844 28.644531 43.144531 28.691406 43.253906 28.621094 C 43.3125 28.804688 43.355469 28.992188 43.378906 29.179688 C 43.222656 29.40625 43.058594 29.625 42.886719 29.835938 C 42.863281 29.652344 42.820312 29.476562 42.765625 29.304688 C 42.914062 29.125 42.816406 28.832031 42.714844 28.660156 C 42.613281 28.480469 42.40625 28.328125 42.234375 28.234375 C 42.058594 28.144531 41.835938 28.128906 41.652344 28.074219 C 41.910156 28.203125 42.117188 28.464844 42.1875 28.765625 C 42.210938 28.871094 42.273438 29.0625 42.320312 29.160156 C 42.425781 29.371094 42.601562 29.417969 42.710938 29.351562 C 42.769531 29.527344 42.808594 29.714844 42.832031 29.902344 C 42.664062 30.109375 42.480469 30.304688 42.292969 30.488281 C 42.269531 30.316406 42.226562 30.144531 42.171875 29.976562 C 42.328125 29.792969 42.226562 29.5 42.125 29.324219 C 42.019531 29.140625 41.8125 28.988281 41.636719 28.894531 C 41.457031 28.800781 41.234375 28.785156 41.042969 28.730469 C 41.308594 28.859375 41.515625 29.128906 41.589844 29.429688 C 41.613281 29.535156 41.675781 29.734375 41.722656 29.828125 C 41.828125 30.042969 42.007812 30.089844 42.121094 30.023438 C 42.175781 30.195312 42.214844 30.371094 42.238281 30.546875 C 42.214844 30.570312 42.195312 30.59375 42.171875 30.613281 C 41.242188 31.507812 40.128906 32.183594 38.925781 32.578125 C 38.871094 32.597656 38.898438 32.6875 38.949219 32.671875 C 39.628906 32.449219 40.28125 32.136719 40.890625 31.746094 C 41.25 31.515625 41.59375 31.253906 41.921875 30.972656 Z M 44.460938 37.429688 C 44.371094 37.691406 43.84375 37.714844 43.625 37.722656 C 43.371094 37.734375 42.988281 37.707031 42.390625 37.457031 C 42.082031 37.328125 41.675781 37.15625 41.257812 36.8125 C 41.238281 36.796875 41.21875 36.78125 41.203125 36.765625 C 41.144531 36.714844 41.082031 36.664062 41.023438 36.605469 C 40.859375 36.4375 39.789062 35.386719 40.027344 34.238281 C 40.039062 34.183594 40.1875 33.507812 40.542969 33.445312 C 40.988281 33.367188 41.445312 34.292969 41.628906 34.195312 C 41.722656 34.148438 41.632812 33.90625 41.628906 33.59375 C 41.621094 32.890625 42.035156 31.992188 42.644531 31.875 C 42.933594 31.820312 43.277344 31.9375 43.484375 32.183594 C 43.816406 32.585938 43.476562 33.296875 43.539062 33.316406 C 43.628906 33.34375 43.867188 31.839844 44.6875 31.582031 C 44.976562 31.492188 45.363281 31.550781 45.511719 31.761719 C 45.726562 32.074219 45.335938 32.589844 45.480469 32.703125 C 45.632812 32.816406 46.042969 32.222656 46.816406 32.085938 C 47.015625 32.050781 47.476562 31.96875 47.773438 32.25 C 48.027344 32.488281 48.089844 32.914062 47.949219 33.234375 C 47.8125 33.527344 47.539062 33.65625 47.460938 33.6875 C 46.96875 33.90625 46.660156 33.589844 45.789062 33.671875 C 45.484375 33.699219 45.148438 33.773438 45.140625 33.875 C 45.136719 33.953125 45.320312 33.976562 45.507812 34.171875 C 45.511719 34.175781 45.519531 34.179688 45.523438 34.1875 C 45.582031 34.25 45.785156 34.464844 45.769531 34.742188 C 45.769531 34.753906 45.753906 35.058594 45.550781 35.167969 C 45.445312 35.226562 45.335938 35.207031 45.285156 35.199219 C 44.800781 35.121094 44.171875 35.175781 44.15625 35.257812 C 44.132812 35.347656 44.914062 35.464844 44.949219 35.769531 C 44.972656 36.023438 44.46875 36.269531 44.402344 36.300781 C 43.859375 36.554688 43.289062 36.445312 43.289062 36.488281 C 43.285156 36.527344 43.753906 36.5 44.125 36.796875 C 44.296875 36.9375 44.535156 37.21875 44.460938 37.429688 Z M 44.460938 37.429688 "/>
<path style=" stroke:none;fill-rule:nonzero;fill:rgb(100%,100%,100%);fill-opacity:1;" d="M 44.265625 34.933594 C 44.25 34.949219 44.230469 34.941406 44.214844 34.925781 C 44.113281 34.820312 43.96875 34.75 43.824219 34.734375 C 43.820312 34.734375 43.816406 34.734375 43.816406 34.734375 C 43.804688 34.734375 43.792969 34.734375 43.785156 34.730469 C 43.566406 34.71875 43.335938 34.699219 43.132812 34.804688 C 43.132812 34.808594 43.132812 34.808594 43.128906 34.808594 C 43.128906 34.808594 43.128906 34.8125 43.128906 34.8125 C 43.105469 34.839844 43.074219 34.863281 43.042969 34.875 C 42.90625 35.019531 42.773438 35.171875 42.644531 35.320312 C 42.769531 35.324219 42.894531 35.296875 43 35.234375 C 43.019531 35.222656 43.039062 35.222656 43.050781 35.242188 C 43.0625 35.253906 43.058594 35.28125 43.042969 35.289062 C 42.910156 35.367188 42.757812 35.402344 42.601562 35.390625 C 42.597656 35.390625 42.59375 35.390625 42.589844 35.386719 C 42.4375 35.558594 42.289062 35.734375 42.136719 35.90625 C 41.984375 36.082031 41.828125 36.253906 41.664062 36.417969 C 41.832031 36.472656 42 36.535156 42.171875 36.566406 C 42.335938 36.59375 42.53125 36.574219 42.644531 36.433594 C 42.675781 36.402344 42.730469 36.445312 42.699219 36.480469 C 42.613281 36.585938 42.484375 36.636719 42.347656 36.644531 C 42.441406 36.734375 42.515625 36.835938 42.566406 36.953125 C 42.585938 36.996094 42.519531 37.019531 42.5 36.980469 C 42.445312 36.851562 42.359375 36.742188 42.253906 36.652344 C 42.25 36.648438 42.25 36.648438 42.25 36.644531 C 42.234375 36.644531 42.21875 36.644531 42.203125 36.640625 C 42.105469 36.628906 42.007812 36.601562 41.914062 36.570312 C 41.8125 36.539062 41.710938 36.507812 41.609375 36.476562 C 41.496094 36.589844 41.378906 36.703125 41.257812 36.8125 C 41.238281 36.796875 41.21875 36.78125 41.203125 36.765625 C 41.253906 36.722656 41.300781 36.679688 41.347656 36.632812 C 41.292969 36.566406 41.292969 36.46875 41.3125 36.390625 C 41.328125 36.304688 41.363281 36.214844 41.328125 36.132812 C 41.308594 36.09375 41.375 36.066406 41.390625 36.109375 C 41.429688 36.191406 41.40625 36.28125 41.386719 36.367188 C 41.371094 36.4375 41.355469 36.519531 41.402344 36.582031 C 41.457031 36.527344 41.515625 36.472656 41.574219 36.414062 C 41.773438 36.210938 41.964844 35.996094 42.152344 35.78125 C 42.148438 35.78125 42.148438 35.777344 42.148438 35.777344 C 42.089844 35.523438 42.15625 35.265625 42.25 35.03125 C 42.261719 35.003906 42.277344 34.972656 42.289062 34.941406 C 42.285156 34.9375 42.28125 34.933594 42.28125 34.929688 C 42.050781 34.804688 41.855469 34.636719 41.699219 34.425781 C 41.671875 34.390625 41.730469 34.351562 41.757812 34.386719 C 41.90625 34.585938 42.097656 34.75 42.316406 34.871094 C 42.351562 34.789062 42.386719 34.707031 42.417969 34.625 C 42.460938 34.503906 42.496094 34.378906 42.464844 34.253906 C 42.457031 34.207031 42.527344 34.203125 42.535156 34.246094 C 42.5625 34.367188 42.539062 34.488281 42.5 34.601562 C 42.453125 34.738281 42.394531 34.867188 42.339844 35 C 42.246094 35.226562 42.167969 35.46875 42.210938 35.714844 C 42.246094 35.671875 42.28125 35.632812 42.316406 35.589844 C 42.726562 35.113281 43.136719 34.632812 43.609375 34.21875 C 43.621094 34.207031 43.632812 34.195312 43.644531 34.1875 C 43.660156 34.113281 43.675781 34.039062 43.6875 33.96875 C 43.699219 33.921875 43.714844 33.863281 43.6875 33.820312 C 43.660156 33.78125 43.71875 33.742188 43.746094 33.777344 C 43.78125 33.832031 43.773438 33.898438 43.761719 33.960938 C 43.753906 34.011719 43.742188 34.0625 43.730469 34.113281 C 43.933594 33.945312 44.152344 33.785156 44.378906 33.652344 C 44.378906 33.652344 44.378906 33.648438 44.378906 33.648438 C 44.347656 33.546875 44.371094 33.441406 44.414062 33.34375 C 44.457031 33.238281 44.523438 33.136719 44.546875 33.023438 C 44.554688 32.976562 44.625 32.988281 44.617188 33.035156 C 44.59375 33.144531 44.539062 33.238281 44.492188 33.339844 C 44.453125 33.421875 44.417969 33.519531 44.441406 33.613281 C 44.644531 33.5 44.855469 33.402344 45.078125 33.328125 C 45.121094 33.3125 45.148438 33.378906 45.101562 33.394531 C 45.035156 33.414062 44.964844 33.441406 44.898438 33.46875 C 44.351562 33.691406 43.871094 34.054688 43.441406 34.464844 C 43.363281 34.539062 43.285156 34.621094 43.207031 34.699219 C 43.371094 34.644531 43.550781 34.648438 43.722656 34.660156 C 43.9375 34.667969 44.167969 34.6875 44.359375 34.574219 C 44.398438 34.554688 44.441406 34.609375 44.402344 34.632812 C 44.296875 34.695312 44.179688 34.722656 44.0625 34.730469 C 44.140625 34.769531 44.210938 34.820312 44.273438 34.886719 C 44.285156 34.898438 44.277344 34.925781 44.265625 34.933594 Z M 44.265625 34.933594 "/>
<path style=" stroke:none;fill-rule:nonzero;fill:rgb(35.294118%,34.509804%,34.509804%);fill-opacity:1;" d="M 42.894531 36.523438 L 7.640625 36.523438 C 7.1875 36.523438 6.820312 36.855469 6.820312 37.261719 L 6.820312 37.625 C 6.820312 38.035156 7.1875 38.367188 7.640625 38.367188 L 42.894531 38.367188 C 43.347656 38.367188 43.714844 38.035156 43.714844 37.625 L 43.714844 37.261719 C 43.714844 36.855469 43.347656 36.523438 42.894531 36.523438 Z M 42.894531 36.523438 "/>
<path style=" stroke:none;fill-rule:nonzero;fill:rgb(35.294118%,34.509804%,34.509804%);fill-opacity:1;" d="M 40.023438 16.390625 L 10.511719 16.390625 C 10.039062 16.390625 9.652344 16.773438 9.652344 17.25 L 9.652344 36.585938 C 9.652344 37.058594 10.039062 37.445312 10.511719 37.445312 L 40.023438 37.445312 C 40.496094 37.445312 40.882812 37.058594 40.882812 36.585938 L 40.882812 17.25 C 40.882812 16.773438 40.496094 16.390625 40.023438 16.390625 Z M 39.769531 35.941406 C 39.769531 36.253906 39.519531 36.503906 39.207031 36.503906 L 11.273438 36.503906 C 10.960938 36.503906 10.710938 36.253906 10.710938 35.941406 L 10.710938 17.890625 C 10.710938 17.582031 10.960938 17.328125 11.273438 17.328125 L 39.207031 17.328125 C 39.519531 17.328125 39.769531 17.582031 39.769531 17.890625 Z M 39.769531 35.941406 "/>
<path style=" stroke:none;fill-rule:nonzero;fill:rgb(58.039216%,88.627451%,24.705882%);fill-opacity:1;" d="M 35.007812 19.46875 L 12.136719 19.46875 C 11.8125 19.46875 11.550781 19.746094 11.550781 20.085938 C 11.550781 20.429688 11.8125 20.703125 12.136719 20.703125 L 35.007812 20.703125 C 35.332031 20.703125 35.59375 20.429688 35.59375 20.085938 C 35.59375 19.746094 35.332031 19.46875 35.007812 19.46875 Z M 38.449219 20.703125 L 36.710938 20.703125 C 36.371094 20.703125 36.09375 20.429688 36.09375 20.085938 C 36.09375 19.746094 36.371094 19.46875 36.710938 19.46875 L 38.449219 19.46875 C 38.789062 19.46875 39.066406 19.746094 39.066406 20.085938 C 39.066406 20.429688 38.789062 20.703125 38.449219 20.703125 Z M 38.449219 20.703125 "/>
<path style=" stroke:none;fill-rule:nonzero;fill:rgb(43.921569%,79.215686%,30.196078%);fill-opacity:1;" d="M 38.84375 18.875 L 38.132812 18.875 C 38.011719 18.875 37.910156 18.777344 37.910156 18.652344 L 37.910156 17.941406 C 37.910156 17.820312 38.011719 17.722656 38.132812 17.722656 L 38.84375 17.722656 C 38.964844 17.722656 39.066406 17.820312 39.066406 17.941406 L 39.066406 18.652344 C 39.066406 18.777344 38.964844 18.875 38.84375 18.875 Z M 38.84375 18.875 "/>
<path style=" stroke:none;fill-rule:nonzero;fill:rgb(100%,100%,100%);fill-opacity:1;" d="M 38.753906 18.679688 C 38.796875 18.640625 38.835938 18.601562 38.878906 18.5625 C 38.785156 18.476562 38.6875 18.386719 38.59375 18.300781 C 38.695312 18.222656 38.792969 18.140625 38.894531 18.058594 C 38.855469 18.019531 38.820312 17.976562 38.78125 17.933594 C 38.691406 18.027344 38.601562 18.121094 38.511719 18.214844 C 38.429688 18.117188 38.347656 18.015625 38.265625 17.917969 C 38.226562 17.957031 38.183594 17.996094 38.144531 18.035156 C 38.234375 18.121094 38.328125 18.207031 38.421875 18.296875 C 38.324219 18.375 38.226562 18.457031 38.125 18.535156 C 38.164062 18.578125 38.203125 18.621094 38.242188 18.660156 C 38.328125 18.570312 38.417969 18.476562 38.503906 18.382812 C 38.589844 18.480469 38.671875 18.578125 38.753906 18.679688 Z M 38.753906 18.679688 "/>
<path style=" stroke:none;fill-rule:nonzero;fill:rgb(43.921569%,79.215686%,30.196078%);fill-opacity:1;" d="M 35.835938 18.695312 C 35.835938 18.597656 35.917969 18.519531 36.015625 18.519531 C 36.113281 18.519531 36.195312 18.597656 36.195312 18.695312 C 36.195312 18.796875 36.113281 18.875 36.015625 18.875 C 35.917969 18.875 35.835938 18.796875 35.835938 18.695312 Z M 36.402344 18.695312 C 36.402344 18.597656 36.484375 18.519531 36.582031 18.519531 C 36.679688 18.519531 36.761719 18.597656 36.761719 18.695312 C 36.761719 18.796875 36.679688 18.875 36.582031 18.875 C 36.484375 18.875 36.402344 18.796875 36.402344 18.695312 Z M 36.972656 18.695312 C 36.972656 18.597656 37.050781 18.519531 37.148438 18.519531 C 37.25 18.519531 37.328125 18.597656 37.328125 18.695312 C 37.328125 18.796875 37.25 18.875 37.148438 18.875 C 37.050781 18.875 36.972656 18.796875 36.972656 18.695312 Z M 12.996094 17.953125 L 11.679688 17.953125 C 11.609375 17.953125 11.550781 18.011719 11.550781 18.082031 L 11.550781 18.867188 C 11.550781 18.9375 11.609375 18.992188 11.679688 18.992188 L 12.996094 18.992188 C 13.066406 18.992188 13.121094 18.9375 13.121094 18.867188 L 13.121094 18.082031 C 13.121094 18.011719 13.066406 17.953125 12.996094 17.953125 Z M 12.996094 17.953125 "/>
<path style=" stroke:none;fill-rule:nonzero;fill:rgb(100%,100%,100%);fill-opacity:1;" d="M 12.640625 18.433594 L 12.4375 18.433594 L 12.4375 18.230469 C 12.4375 18.1875 12.402344 18.15625 12.363281 18.15625 C 12.320312 18.15625 12.289062 18.1875 12.289062 18.230469 L 12.289062 18.433594 L 12.082031 18.433594 C 12.042969 18.433594 12.007812 18.46875 12.007812 18.507812 C 12.007812 18.550781 12.042969 18.582031 12.082031 18.582031 L 12.289062 18.582031 L 12.289062 18.789062 C 12.289062 18.828125 12.320312 18.863281 12.363281 18.863281 C 12.402344 18.863281 12.4375 18.828125 12.4375 18.789062 L 12.4375 18.582031 L 12.640625 18.582031 C 12.683594 18.582031 12.714844 18.550781 12.714844 18.507812 C 12.714844 18.46875 12.683594 18.433594 12.640625 18.433594 Z M 12.640625 18.433594 "/>
<path style=" stroke:none;fill-rule:nonzero;fill:rgb(18.823529%,81.176471%,88.235294%);fill-opacity:1;" d="M 15.324219 28.582031 C 15.273438 28.582031 15.230469 28.542969 15.226562 28.488281 C 15.222656 28.433594 15.265625 28.386719 15.320312 28.382812 C 15.488281 28.371094 15.660156 28.34375 15.824219 28.300781 C 15.878906 28.289062 15.929688 28.320312 15.945312 28.371094 C 15.957031 28.425781 15.925781 28.480469 15.871094 28.492188 C 15.695312 28.539062 15.515625 28.566406 15.332031 28.582031 C 15.332031 28.582031 15.328125 28.582031 15.324219 28.582031 Z M 14.796875 28.574219 C 14.792969 28.574219 14.789062 28.574219 14.789062 28.574219 C 14.605469 28.558594 14.425781 28.523438 14.25 28.476562 C 14.195312 28.460938 14.164062 28.40625 14.179688 28.355469 C 14.195312 28.300781 14.25 28.269531 14.300781 28.285156 C 14.464844 28.332031 14.636719 28.359375 14.804688 28.378906 C 14.859375 28.382812 14.902344 28.429688 14.894531 28.484375 C 14.890625 28.535156 14.847656 28.574219 14.796875 28.574219 Z M 16.347656 28.324219 C 16.3125 28.324219 16.273438 28.300781 16.257812 28.265625 C 16.234375 28.214844 16.257812 28.15625 16.308594 28.132812 C 16.464844 28.0625 16.613281 27.980469 16.757812 27.886719 C 16.800781 27.855469 16.863281 27.867188 16.894531 27.914062 C 16.925781 27.957031 16.914062 28.019531 16.867188 28.050781 C 16.714844 28.152344 16.554688 28.242188 16.390625 28.316406 C 16.375 28.320312 16.363281 28.324219 16.347656 28.324219 Z M 13.78125 28.296875 C 13.765625 28.296875 13.75 28.292969 13.738281 28.289062 C 13.574219 28.210938 13.414062 28.117188 13.265625 28.011719 C 13.21875 27.980469 13.207031 27.917969 13.242188 27.875 C 13.273438 27.828125 13.332031 27.820312 13.378906 27.851562 C 13.519531 27.949219 13.667969 28.035156 13.820312 28.109375 C 13.871094 28.132812 13.894531 28.191406 13.871094 28.238281 C 13.851562 28.277344 13.816406 28.296875 13.78125 28.296875 Z M 17.222656 27.734375 C 17.199219 27.734375 17.171875 27.726562 17.152344 27.703125 C 17.113281 27.664062 17.117188 27.601562 17.15625 27.566406 C 17.277344 27.445312 17.394531 27.316406 17.496094 27.179688 C 17.527344 27.136719 17.589844 27.125 17.632812 27.160156 C 17.675781 27.191406 17.6875 27.253906 17.652344 27.296875 C 17.546875 27.445312 17.425781 27.582031 17.292969 27.707031 C 17.273438 27.726562 17.25 27.734375 17.222656 27.734375 Z M 12.917969 27.691406 C 12.890625 27.691406 12.867188 27.679688 12.847656 27.660156 C 12.71875 27.53125 12.597656 27.394531 12.492188 27.246094 C 12.460938 27.199219 12.472656 27.136719 12.515625 27.105469 C 12.5625 27.074219 12.625 27.085938 12.65625 27.128906 C 12.753906 27.269531 12.867188 27.398438 12.984375 27.519531 C 13.023438 27.558594 13.023438 27.621094 12.988281 27.660156 C 12.96875 27.679688 12.941406 27.691406 12.917969 27.691406 Z M 17.851562 26.886719 C 17.835938 26.886719 17.820312 26.882812 17.808594 26.878906 C 17.757812 26.851562 17.738281 26.792969 17.761719 26.742188 C 17.839844 26.589844 17.902344 26.429688 17.953125 26.269531 C 17.96875 26.214844 18.023438 26.1875 18.078125 26.203125 C 18.128906 26.21875 18.160156 26.273438 18.144531 26.324219 C 18.089844 26.5 18.023438 26.671875 17.941406 26.832031 C 17.921875 26.867188 17.886719 26.886719 17.851562 26.886719 Z M 12.304688 26.828125 C 12.269531 26.828125 12.234375 26.808594 12.21875 26.773438 C 12.136719 26.609375 12.074219 26.4375 12.023438 26.261719 C 12.011719 26.207031 12.042969 26.152344 12.09375 26.140625 C 12.148438 26.125 12.203125 26.15625 12.214844 26.207031 C 12.261719 26.371094 12.324219 26.535156 12.394531 26.6875 C 12.417969 26.738281 12.398438 26.796875 12.347656 26.820312 C 12.335938 26.828125 12.320312 26.828125 12.304688 26.828125 Z M 18.15625 25.878906 C 18.152344 25.878906 18.148438 25.878906 18.144531 25.878906 C 18.089844 25.871094 18.050781 25.820312 18.058594 25.765625 C 18.070312 25.648438 18.078125 25.527344 18.078125 25.40625 C 18.078125 25.355469 18.078125 25.304688 18.074219 25.253906 C 18.074219 25.199219 18.113281 25.152344 18.167969 25.152344 C 18.222656 25.148438 18.269531 25.191406 18.273438 25.246094 C 18.277344 25.296875 18.277344 25.351562 18.277344 25.40625 C 18.277344 25.535156 18.269531 25.664062 18.253906 25.789062 C 18.25 25.839844 18.207031 25.878906 18.15625 25.878906 Z M 12.023438 25.8125 C 11.972656 25.8125 11.929688 25.777344 11.925781 25.722656 C 11.914062 25.617188 11.910156 25.511719 11.910156 25.40625 C 11.910156 25.222656 11.925781 25.039062 11.953125 24.859375 C 11.964844 24.808594 12.015625 24.769531 12.070312 24.78125 C 12.125 24.789062 12.160156 24.839844 12.152344 24.894531 C 12.121094 25.0625 12.105469 25.234375 12.105469 25.40625 C 12.105469 25.503906 12.113281 25.605469 12.121094 25.703125 C 12.128906 25.757812 12.085938 25.808594 12.03125 25.8125 C 12.03125 25.8125 12.027344 25.8125 12.023438 25.8125 Z M 18.101562 24.824219 C 18.058594 24.824219 18.015625 24.792969 18.007812 24.746094 C 17.96875 24.582031 17.917969 24.417969 17.851562 24.257812 C 17.832031 24.207031 17.855469 24.148438 17.90625 24.128906 C 17.957031 24.109375 18.015625 24.132812 18.035156 24.183594 C 18.105469 24.351562 18.160156 24.527344 18.199219 24.703125 C 18.210938 24.757812 18.179688 24.808594 18.125 24.820312 C 18.117188 24.824219 18.109375 24.824219 18.101562 24.824219 Z M 12.1875 24.464844 C 12.175781 24.464844 12.164062 24.464844 12.152344 24.460938 C 12.101562 24.441406 12.074219 24.382812 12.09375 24.332031 C 12.15625 24.160156 12.230469 23.992188 12.320312 23.835938 C 12.347656 23.789062 12.410156 23.769531 12.457031 23.796875 C 12.503906 23.824219 12.519531 23.886719 12.496094 23.933594 C 12.410156 24.082031 12.339844 24.238281 12.28125 24.398438 C 12.265625 24.441406 12.226562 24.464844 12.1875 24.464844 Z M 17.699219 23.851562 C 17.664062 23.851562 17.632812 23.835938 17.613281 23.804688 C 17.523438 23.660156 17.417969 23.523438 17.304688 23.398438 C 17.265625 23.355469 17.269531 23.292969 17.3125 23.257812 C 17.351562 23.21875 17.414062 23.222656 17.449219 23.265625 C 17.574219 23.398438 17.683594 23.546875 17.78125 23.699219 C 17.8125 23.746094 17.796875 23.804688 17.753906 23.835938 C 17.734375 23.847656 17.71875 23.851562 17.699219 23.851562 Z M 12.707031 23.546875 C 12.6875 23.546875 12.664062 23.539062 12.644531 23.523438 C 12.601562 23.488281 12.597656 23.425781 12.632812 23.386719 C 12.746094 23.246094 12.875 23.113281 13.011719 22.992188 C 13.054688 22.957031 13.117188 22.960938 13.152344 23.003906 C 13.1875 23.046875 13.183594 23.109375 13.140625 23.144531 C 13.011719 23.257812 12.894531 23.378906 12.785156 23.511719 C 12.765625 23.535156 12.738281 23.546875 12.707031 23.546875 Z M 16.988281 23.070312 C 16.96875 23.070312 16.945312 23.0625 16.929688 23.050781 C 16.792969 22.945312 16.648438 22.851562 16.5 22.769531 C 16.449219 22.742188 16.433594 22.683594 16.457031 22.636719 C 16.484375 22.585938 16.542969 22.570312 16.59375 22.59375 C 16.753906 22.679688 16.90625 22.78125 17.050781 22.894531 C 17.09375 22.925781 17.101562 22.988281 17.066406 23.03125 C 17.046875 23.058594 17.019531 23.070312 16.988281 23.070312 Z M 13.507812 22.859375 C 13.472656 22.859375 13.441406 22.839844 13.421875 22.808594 C 13.394531 22.761719 13.40625 22.703125 13.453125 22.671875 C 13.609375 22.578125 13.777344 22.5 13.945312 22.433594 C 13.996094 22.414062 14.054688 22.4375 14.074219 22.492188 C 14.09375 22.542969 14.066406 22.597656 14.015625 22.617188 C 13.859375 22.679688 13.703125 22.757812 13.558594 22.84375 C 13.542969 22.851562 13.523438 22.859375 13.507812 22.859375 Z M 16.058594 22.574219 C 16.046875 22.574219 16.039062 22.570312 16.027344 22.566406 C 15.867188 22.515625 15.699219 22.476562 15.53125 22.449219 C 15.476562 22.441406 15.4375 22.390625 15.445312 22.335938 C 15.453125 22.285156 15.503906 22.246094 15.558594 22.253906 C 15.738281 22.28125 15.917969 22.324219 16.089844 22.378906 C 16.140625 22.398438 16.171875 22.453125 16.152344 22.503906 C 16.140625 22.546875 16.101562 22.574219 16.058594 22.574219 Z M 14.488281 22.476562 C 14.441406 22.476562 14.402344 22.445312 14.390625 22.398438 C 14.382812 22.34375 14.417969 22.292969 14.46875 22.28125 C 14.648438 22.246094 14.832031 22.226562 15.011719 22.222656 C 15.066406 22.21875 15.113281 22.261719 15.113281 22.316406 C 15.117188 22.371094 15.074219 22.417969 15.019531 22.417969 C 14.847656 22.425781 14.675781 22.441406 14.507812 22.476562 C 14.503906 22.476562 14.496094 22.476562 14.488281 22.476562 Z M 14.488281 22.476562 "/>
<path style=" stroke:none;fill-rule:nonzero;fill:rgb(97.647059%,82.745098%,55.686275%);fill-opacity:1;" d="M 12.949219 29.84375 L 14.398438 29.84375 C 14.597656 29.84375 14.757812 30.003906 14.757812 30.203125 L 14.757812 31.652344 C 14.757812 31.851562 14.597656 32.011719 14.398438 32.011719 L 12.949219 32.011719 C 12.75 32.011719 12.589844 31.851562 12.589844 31.652344 L 12.589844 30.203125 C 12.589844 30.003906 12.75 29.84375 12.949219 29.84375 Z M 12.949219 29.84375 "/>
<path style=" stroke:none;fill-rule:nonzero;fill:rgb(43.921569%,79.215686%,30.196078%);fill-opacity:1;" d="M 16.035156 29.84375 L 17.484375 29.84375 C 17.683594 29.84375 17.84375 30.003906 17.84375 30.203125 L 17.84375 31.652344 C 17.84375 31.851562 17.683594 32.011719 17.484375 32.011719 L 16.035156 32.011719 C 15.835938 32.011719 15.675781 31.851562 15.675781 31.652344 L 15.675781 30.203125 C 15.675781 30.003906 15.835938 29.84375 16.035156 29.84375 Z M 12.949219 33.019531 L 14.398438 33.019531 C 14.597656 33.019531 14.757812 33.179688 14.757812 33.378906 L 14.757812 34.828125 C 14.757812 35.027344 14.597656 35.1875 14.398438 35.1875 L 12.949219 35.1875 C 12.75 35.1875 12.589844 35.027344 12.589844 34.828125 L 12.589844 33.378906 C 12.589844 33.179688 12.75 33.019531 12.949219 33.019531 Z M 12.949219 33.019531 "/>
<path style=" stroke:none;fill-rule:nonzero;fill:rgb(97.647059%,82.745098%,55.686275%);fill-opacity:1;" d="M 16.035156 33.019531 L 17.484375 33.019531 C 17.683594 33.019531 17.84375 33.179688 17.84375 33.378906 L 17.84375 34.828125 C 17.84375 35.027344 17.683594 35.1875 17.484375 35.1875 L 16.035156 35.1875 C 15.835938 35.1875 15.675781 35.027344 15.675781 34.828125 L 15.675781 33.378906 C 15.675781 33.179688 15.835938 33.019531 16.035156 33.019531 Z M 16.035156 33.019531 "/>
<path style=" stroke:none;fill-rule:nonzero;fill:rgb(63.137255%,90.588235%,93.72549%);fill-opacity:1;" d="M 21.246094 22.320312 L 37.742188 22.320312 L 37.742188 28.492188 L 21.246094 28.492188 Z M 21.246094 22.320312 "/>
<path style=" stroke:none;fill-rule:nonzero;fill:rgb(18.823529%,81.176471%,88.235294%);fill-opacity:1;" d="M 25.671875 35.011719 L 25.140625 35.011719 C 25.085938 35.011719 25.039062 34.964844 25.039062 34.910156 C 25.039062 34.855469 25.085938 34.8125 25.140625 34.8125 L 25.671875 34.8125 C 25.726562 34.8125 25.769531 34.855469 25.769531 34.910156 C 25.769531 34.964844 25.726562 35.011719 25.671875 35.011719 Z M 24.609375 35.011719 L 24.078125 35.011719 C 24.023438 35.011719 23.980469 34.964844 23.980469 34.910156 C 23.980469 34.855469 24.023438 34.8125 24.078125 34.8125 L 24.609375 34.8125 C 24.664062 34.8125 24.710938 34.855469 24.710938 34.910156 C 24.710938 34.964844 24.664062 35.011719 24.609375 35.011719 Z M 23.550781 35.011719 L 23.019531 35.011719 C 22.964844 35.011719 22.921875 34.964844 22.921875 34.910156 C 22.921875 34.855469 22.964844 34.8125 23.019531 34.8125 L 23.550781 34.8125 C 23.605469 34.8125 23.648438 34.855469 23.648438 34.910156 C 23.648438 34.964844 23.605469 35.011719 23.550781 35.011719 Z M 22.488281 35.011719 L 21.960938 35.011719 C 21.90625 35.011719 21.859375 34.964844 21.859375 34.910156 C 21.859375 34.855469 21.90625 34.8125 21.960938 34.8125 L 22.488281 34.8125 C 22.542969 34.8125 22.589844 34.855469 22.589844 34.910156 C 22.589844 34.964844 22.542969 35.011719 22.488281 35.011719 Z M 21.429688 35.011719 L 21.144531 35.011719 L 21.144531 34.566406 C 21.144531 34.511719 21.191406 34.46875 21.246094 34.46875 C 21.300781 34.46875 21.34375 34.511719 21.34375 34.566406 L 21.34375 34.8125 L 21.429688 34.8125 C 21.484375 34.8125 21.527344 34.855469 21.527344 34.910156 C 21.527344 34.964844 21.484375 35.011719 21.429688 35.011719 Z M 25.902344 34.710938 C 25.847656 34.710938 25.800781 34.667969 25.800781 34.613281 L 25.800781 34.082031 C 25.800781 34.027344 25.847656 33.984375 25.902344 33.984375 C 25.957031 33.984375 26 34.027344 26 34.082031 L 26 34.613281 C 26 34.667969 25.957031 34.710938 25.902344 34.710938 Z M 21.246094 34.136719 C 21.191406 34.136719 21.144531 34.089844 21.144531 34.035156 L 21.144531 33.507812 C 21.144531 33.449219 21.191406 33.40625 21.246094 33.40625 C 21.300781 33.40625 21.34375 33.449219 21.34375 33.507812 L 21.34375 34.035156 C 21.34375 34.089844 21.300781 34.136719 21.246094 34.136719 Z M 25.902344 33.652344 C 25.847656 33.652344 25.800781 33.605469 25.800781 33.550781 L 25.800781 33.023438 C 25.800781 32.96875 25.847656 32.921875 25.902344 32.921875 C 25.957031 32.921875 26 32.96875 26 33.023438 L 26 33.550781 C 26 33.605469 25.957031 33.652344 25.902344 33.652344 Z M 21.246094 33.074219 C 21.191406 33.074219 21.144531 33.03125 21.144531 32.976562 L 21.144531 32.445312 C 21.144531 32.390625 21.191406 32.347656 21.246094 32.347656 C 21.300781 32.347656 21.34375 32.390625 21.34375 32.445312 L 21.34375 32.976562 C 21.34375 33.03125 21.300781 33.074219 21.246094 33.074219 Z M 25.902344 32.589844 C 25.847656 32.589844 25.800781 32.546875 25.800781 32.492188 L 25.800781 31.960938 C 25.800781 31.90625 25.847656 31.863281 25.902344 31.863281 C 25.957031 31.863281 26 31.90625 26 31.960938 L 26 32.492188 C 26 32.546875 25.957031 32.589844 25.902344 32.589844 Z M 21.246094 32.015625 C 21.191406 32.015625 21.144531 31.96875 21.144531 31.914062 L 21.144531 31.386719 C 21.144531 31.332031 21.191406 31.285156 21.246094 31.285156 C 21.300781 31.285156 21.34375 31.332031 21.34375 31.386719 L 21.34375 31.914062 C 21.34375 31.96875 21.300781 32.015625 21.246094 32.015625 Z M 25.902344 31.53125 C 25.847656 31.53125 25.800781 31.488281 25.800781 31.429688 L 25.800781 30.902344 C 25.800781 30.847656 25.847656 30.800781 25.902344 30.800781 C 25.957031 30.800781 26 30.847656 26 30.902344 L 26 31.429688 C 26 31.488281 25.957031 31.53125 25.902344 31.53125 Z M 21.246094 30.953125 C 21.191406 30.953125 21.144531 30.910156 21.144531 30.855469 L 21.144531 30.324219 C 21.144531 30.3125 21.148438 30.300781 21.152344 30.289062 C 21.148438 30.28125 21.144531 30.269531 21.144531 30.257812 C 21.144531 30.203125 21.191406 30.15625 21.246094 30.15625 L 21.773438 30.15625 C 21.828125 30.15625 21.875 30.203125 21.875 30.257812 C 21.875 30.3125 21.828125 30.355469 21.773438 30.355469 L 21.34375 30.355469 L 21.34375 30.855469 C 21.34375 30.910156 21.300781 30.953125 21.246094 30.953125 Z M 25.902344 30.46875 C 25.847656 30.46875 25.800781 30.425781 25.800781 30.371094 L 25.800781 30.355469 L 25.484375 30.355469 C 25.429688 30.355469 25.386719 30.3125 25.386719 30.257812 C 25.386719 30.203125 25.429688 30.15625 25.484375 30.15625 L 26 30.15625 L 26 30.371094 C 26 30.425781 25.957031 30.46875 25.902344 30.46875 Z M 24.957031 30.355469 L 24.425781 30.355469 C 24.371094 30.355469 24.328125 30.3125 24.328125 30.257812 C 24.328125 30.203125 24.371094 30.15625 24.425781 30.15625 L 24.957031 30.15625 C 25.011719 30.15625 25.054688 30.203125 25.054688 30.257812 C 25.054688 30.3125 25.011719 30.355469 24.957031 30.355469 Z M 23.894531 30.355469 L 23.367188 30.355469 C 23.3125 30.355469 23.265625 30.3125 23.265625 30.257812 C 23.265625 30.203125 23.3125 30.15625 23.367188 30.15625 L 23.894531 30.15625 C 23.949219 30.15625 23.996094 30.203125 23.996094 30.257812 C 23.996094 30.3125 23.949219 30.355469 23.894531 30.355469 Z M 22.835938 30.355469 L 22.304688 30.355469 C 22.25 30.355469 22.207031 30.3125 22.207031 30.257812 C 22.207031 30.203125 22.25 30.15625 22.304688 30.15625 L 22.835938 30.15625 C 22.890625 30.15625 22.933594 30.203125 22.933594 30.257812 C 22.933594 30.3125 22.890625 30.355469 22.835938 30.355469 Z M 22.835938 30.355469 "/>
<path style=" stroke:none;fill-rule:nonzero;fill:rgb(58.039216%,88.627451%,24.705882%);fill-opacity:1;" d="M 31.589844 35.011719 L 31.058594 35.011719 C 31.003906 35.011719 30.960938 34.964844 30.960938 34.910156 C 30.960938 34.855469 31.003906 34.8125 31.058594 34.8125 L 31.589844 34.8125 C 31.644531 34.8125 31.6875 34.855469 31.6875 34.910156 C 31.6875 34.964844 31.644531 35.011719 31.589844 35.011719 Z M 30.53125 35.011719 L 30 35.011719 C 29.945312 35.011719 29.902344 34.964844 29.902344 34.910156 C 29.902344 34.855469 29.945312 34.8125 30 34.8125 L 30.53125 34.8125 C 30.585938 34.8125 30.628906 34.855469 30.628906 34.910156 C 30.628906 34.964844 30.585938 35.011719 30.53125 35.011719 Z M 29.46875 35.011719 L 28.941406 35.011719 C 28.882812 35.011719 28.839844 34.964844 28.839844 34.910156 C 28.839844 34.855469 28.882812 34.8125 28.941406 34.8125 L 29.46875 34.8125 C 29.523438 34.8125 29.570312 34.855469 29.570312 34.910156 C 29.570312 34.964844 29.523438 35.011719 29.46875 35.011719 Z M 28.410156 35.011719 L 27.878906 35.011719 C 27.824219 35.011719 27.78125 34.964844 27.78125 34.910156 C 27.78125 34.855469 27.824219 34.8125 27.878906 34.8125 L 28.410156 34.8125 C 28.464844 34.8125 28.507812 34.855469 28.507812 34.910156 C 28.507812 34.964844 28.464844 35.011719 28.410156 35.011719 Z M 27.347656 35.011719 L 27.066406 35.011719 L 27.066406 34.566406 C 27.066406 34.511719 27.109375 34.464844 27.164062 34.464844 C 27.21875 34.464844 27.265625 34.511719 27.265625 34.566406 L 27.265625 34.8125 L 27.347656 34.8125 C 27.402344 34.8125 27.449219 34.855469 27.449219 34.910156 C 27.449219 34.964844 27.402344 35.011719 27.347656 35.011719 Z M 31.820312 34.710938 C 31.765625 34.710938 31.722656 34.667969 31.722656 34.613281 L 31.722656 34.082031 C 31.722656 34.027344 31.765625 33.984375 31.820312 33.984375 C 31.875 33.984375 31.917969 34.027344 31.917969 34.082031 L 31.917969 34.613281 C 31.917969 34.667969 31.875 34.710938 31.820312 34.710938 Z M 27.164062 34.136719 C 27.109375 34.136719 27.066406 34.089844 27.066406 34.035156 L 27.066406 33.503906 C 27.066406 33.449219 27.109375 33.40625 27.164062 33.40625 C 27.21875 33.40625 27.265625 33.449219 27.265625 33.503906 L 27.265625 34.035156 C 27.265625 34.089844 27.21875 34.136719 27.164062 34.136719 Z M 31.820312 33.652344 C 31.765625 33.652344 31.722656 33.605469 31.722656 33.550781 L 31.722656 33.023438 C 31.722656 32.96875 31.765625 32.921875 31.820312 32.921875 C 31.875 32.921875 31.917969 32.96875 31.917969 33.023438 L 31.917969 33.550781 C 31.917969 33.605469 31.875 33.652344 31.820312 33.652344 Z M 27.164062 33.074219 C 27.109375 33.074219 27.066406 33.03125 27.066406 32.976562 L 27.066406 32.445312 C 27.066406 32.390625 27.109375 32.347656 27.164062 32.347656 C 27.21875 32.347656 27.265625 32.390625 27.265625 32.445312 L 27.265625 32.976562 C 27.265625 33.03125 27.21875 33.074219 27.164062 33.074219 Z M 31.820312 32.589844 C 31.765625 32.589844 31.722656 32.546875 31.722656 32.492188 L 31.722656 31.960938 C 31.722656 31.90625 31.765625 31.863281 31.820312 31.863281 C 31.875 31.863281 31.917969 31.90625 31.917969 31.960938 L 31.917969 32.492188 C 31.917969 32.546875 31.875 32.589844 31.820312 32.589844 Z M 27.164062 32.015625 C 27.109375 32.015625 27.066406 31.96875 27.066406 31.914062 L 27.066406 31.386719 C 27.066406 31.332031 27.109375 31.285156 27.164062 31.285156 C 27.21875 31.285156 27.265625 31.332031 27.265625 31.386719 L 27.265625 31.914062 C 27.265625 31.96875 27.21875 32.015625 27.164062 32.015625 Z M 31.820312 31.53125 C 31.765625 31.53125 31.722656 31.488281 31.722656 31.429688 L 31.722656 30.902344 C 31.722656 30.847656 31.765625 30.800781 31.820312 30.800781 C 31.875 30.800781 31.917969 30.847656 31.917969 30.902344 L 31.917969 31.429688 C 31.917969 31.488281 31.875 31.53125 31.820312 31.53125 Z M 27.164062 30.953125 C 27.109375 30.953125 27.066406 30.910156 27.066406 30.855469 L 27.066406 30.324219 C 27.066406 30.3125 27.066406 30.300781 27.070312 30.289062 C 27.066406 30.28125 27.066406 30.269531 27.066406 30.257812 C 27.066406 30.203125 27.109375 30.15625 27.164062 30.15625 L 27.695312 30.15625 C 27.75 30.15625 27.792969 30.203125 27.792969 30.257812 C 27.792969 30.3125 27.75 30.355469 27.695312 30.355469 L 27.265625 30.355469 L 27.265625 30.855469 C 27.265625 30.910156 27.21875 30.953125 27.164062 30.953125 Z M 31.820312 30.472656 C 31.765625 30.472656 31.722656 30.425781 31.722656 30.371094 L 31.722656 30.355469 L 31.40625 30.355469 C 31.351562 30.355469 31.304688 30.3125 31.304688 30.257812 C 31.304688 30.203125 31.351562 30.15625 31.40625 30.15625 L 31.917969 30.15625 L 31.917969 30.371094 C 31.917969 30.425781 31.875 30.472656 31.820312 30.472656 Z M 30.875 30.355469 L 30.34375 30.355469 C 30.289062 30.355469 30.246094 30.3125 30.246094 30.257812 C 30.246094 30.203125 30.289062 30.15625 30.34375 30.15625 L 30.875 30.15625 C 30.929688 30.15625 30.976562 30.203125 30.976562 30.257812 C 30.976562 30.3125 30.929688 30.355469 30.875 30.355469 Z M 29.816406 30.355469 L 29.285156 30.355469 C 29.230469 30.355469 29.1875 30.3125 29.1875 30.257812 C 29.1875 30.203125 29.230469 30.15625 29.285156 30.15625 L 29.816406 30.15625 C 29.871094 30.15625 29.914062 30.203125 29.914062 30.257812 C 29.914062 30.3125 29.871094 30.355469 29.816406 30.355469 Z M 28.753906 30.355469 L 28.226562 30.355469 C 28.171875 30.355469 28.125 30.3125 28.125 30.257812 C 28.125 30.203125 28.171875 30.15625 28.226562 30.15625 L 28.753906 30.15625 C 28.808594 30.15625 28.855469 30.203125 28.855469 30.257812 C 28.855469 30.3125 28.808594 30.355469 28.753906 30.355469 Z M 28.753906 30.355469 "/>
<path style=" stroke:none;fill-rule:nonzero;fill:rgb(99.607843%,74.117647%,28.235294%);fill-opacity:1;" d="M 37.511719 34.933594 L 36.980469 34.933594 C 36.925781 34.933594 36.878906 34.890625 36.878906 34.832031 C 36.878906 34.777344 36.925781 34.734375 36.980469 34.734375 L 37.511719 34.734375 C 37.566406 34.734375 37.609375 34.777344 37.609375 34.832031 C 37.609375 34.890625 37.566406 34.933594 37.511719 34.933594 Z M 36.449219 34.933594 L 35.917969 34.933594 C 35.863281 34.933594 35.820312 34.890625 35.820312 34.832031 C 35.820312 34.777344 35.863281 34.734375 35.917969 34.734375 L 36.449219 34.734375 C 36.503906 34.734375 36.550781 34.777344 36.550781 34.832031 C 36.550781 34.890625 36.503906 34.933594 36.449219 34.933594 Z M 35.390625 34.933594 L 34.859375 34.933594 C 34.804688 34.933594 34.761719 34.890625 34.761719 34.832031 C 34.761719 34.777344 34.804688 34.734375 34.859375 34.734375 L 35.390625 34.734375 C 35.445312 34.734375 35.488281 34.777344 35.488281 34.832031 C 35.488281 34.890625 35.445312 34.933594 35.390625 34.933594 Z M 34.328125 34.933594 L 33.800781 34.933594 C 33.746094 34.933594 33.699219 34.890625 33.699219 34.832031 C 33.699219 34.777344 33.746094 34.734375 33.800781 34.734375 L 34.328125 34.734375 C 34.382812 34.734375 34.429688 34.777344 34.429688 34.832031 C 34.429688 34.890625 34.382812 34.933594 34.328125 34.933594 Z M 33.269531 34.933594 L 32.984375 34.933594 L 32.984375 34.488281 C 32.984375 34.433594 33.03125 34.390625 33.085938 34.390625 C 33.140625 34.390625 33.183594 34.433594 33.183594 34.488281 L 33.183594 34.734375 L 33.269531 34.734375 C 33.324219 34.734375 33.367188 34.777344 33.367188 34.832031 C 33.367188 34.890625 33.324219 34.933594 33.269531 34.933594 Z M 37.742188 34.632812 C 37.683594 34.632812 37.640625 34.589844 37.640625 34.535156 L 37.640625 34.003906 C 37.640625 33.949219 37.683594 33.90625 37.742188 33.90625 C 37.796875 33.90625 37.839844 33.949219 37.839844 34.003906 L 37.839844 34.535156 C 37.839844 34.589844 37.796875 34.632812 37.742188 34.632812 Z M 33.085938 34.058594 C 33.03125 34.058594 32.984375 34.011719 32.984375 33.957031 L 32.984375 33.429688 C 32.984375 33.375 33.03125 33.328125 33.085938 33.328125 C 33.140625 33.328125 33.183594 33.375 33.183594 33.429688 L 33.183594 33.957031 C 33.183594 34.011719 33.140625 34.058594 33.085938 34.058594 Z M 37.742188 33.574219 C 37.683594 33.574219 37.640625 33.527344 37.640625 33.472656 L 37.640625 32.945312 C 37.640625 32.890625 37.683594 32.84375 37.742188 32.84375 C 37.796875 32.84375 37.839844 32.890625 37.839844 32.945312 L 37.839844 33.472656 C 37.839844 33.527344 37.796875 33.574219 37.742188 33.574219 Z M 33.085938 32.996094 C 33.03125 32.996094 32.984375 32.953125 32.984375 32.898438 L 32.984375 32.367188 C 32.984375 32.3125 33.03125 32.269531 33.085938 32.269531 C 33.140625 32.269531 33.183594 32.3125 33.183594 32.367188 L 33.183594 32.898438 C 33.183594 32.953125 33.140625 32.996094 33.085938 32.996094 Z M 37.742188 32.511719 C 37.683594 32.511719 37.640625 32.46875 37.640625 32.414062 L 37.640625 31.882812 C 37.640625 31.828125 37.683594 31.785156 37.742188 31.785156 C 37.796875 31.785156 37.839844 31.828125 37.839844 31.882812 L 37.839844 32.414062 C 37.839844 32.46875 37.796875 32.511719 37.742188 32.511719 Z M 33.085938 31.9375 C 33.03125 31.9375 32.984375 31.894531 32.984375 31.835938 L 32.984375 31.308594 C 32.984375 31.253906 33.03125 31.207031 33.085938 31.207031 C 33.140625 31.207031 33.183594 31.253906 33.183594 31.308594 L 33.183594 31.835938 C 33.183594 31.894531 33.140625 31.9375 33.085938 31.9375 Z M 37.742188 31.453125 C 37.683594 31.453125 37.640625 31.410156 37.640625 31.355469 L 37.640625 30.824219 C 37.640625 30.769531 37.683594 30.722656 37.742188 30.722656 C 37.796875 30.722656 37.839844 30.769531 37.839844 30.824219 L 37.839844 31.355469 C 37.839844 31.410156 37.796875 31.453125 37.742188 31.453125 Z M 33.085938 30.875 C 33.03125 30.875 32.984375 30.832031 32.984375 30.777344 L 32.984375 30.246094 C 32.984375 30.234375 32.988281 30.222656 32.992188 30.214844 C 32.988281 30.203125 32.984375 30.191406 32.984375 30.179688 C 32.984375 30.125 33.03125 30.078125 33.085938 30.078125 L 33.613281 30.078125 C 33.667969 30.078125 33.714844 30.125 33.714844 30.179688 C 33.714844 30.234375 33.667969 30.277344 33.613281 30.277344 L 33.183594 30.277344 L 33.183594 30.777344 C 33.183594 30.832031 33.140625 30.875 33.085938 30.875 Z M 37.742188 30.394531 C 37.683594 30.394531 37.640625 30.347656 37.640625 30.292969 L 37.640625 30.277344 L 37.324219 30.277344 C 37.269531 30.277344 37.226562 30.234375 37.226562 30.179688 C 37.226562 30.125 37.269531 30.078125 37.324219 30.078125 L 37.839844 30.078125 L 37.839844 30.292969 C 37.839844 30.347656 37.796875 30.394531 37.742188 30.394531 Z M 36.796875 30.277344 L 36.265625 30.277344 C 36.210938 30.277344 36.164062 30.234375 36.164062 30.179688 C 36.164062 30.125 36.210938 30.078125 36.265625 30.078125 L 36.796875 30.078125 C 36.851562 30.078125 36.894531 30.125 36.894531 30.179688 C 36.894531 30.234375 36.851562 30.277344 36.796875 30.277344 Z M 35.734375 30.277344 L 35.207031 30.277344 C 35.148438 30.277344 35.105469 30.234375 35.105469 30.179688 C 35.105469 30.125 35.148438 30.078125 35.207031 30.078125 L 35.734375 30.078125 C 35.789062 30.078125 35.835938 30.125 35.835938 30.179688 C 35.835938 30.234375 35.789062 30.277344 35.734375 30.277344 Z M 34.675781 30.277344 L 34.144531 30.277344 C 34.089844 30.277344 34.046875 30.234375 34.046875 30.179688 C 34.046875 30.125 34.089844 30.078125 34.144531 30.078125 L 34.675781 30.078125 C 34.730469 30.078125 34.773438 30.125 34.773438 30.179688 C 34.773438 30.234375 34.730469 30.277344 34.675781 30.277344 Z M 34.675781 30.277344 "/>
<path style=" stroke:none;fill-rule:nonzero;fill:rgb(43.921569%,79.215686%,30.196078%);fill-opacity:1;" d="M 30.519531 32.3125 L 29.765625 32.3125 L 29.765625 31.558594 C 29.765625 31.40625 29.644531 31.285156 29.492188 31.285156 C 29.34375 31.285156 29.222656 31.40625 29.222656 31.558594 L 29.222656 32.3125 L 28.464844 32.3125 C 28.316406 32.3125 28.195312 32.433594 28.195312 32.585938 C 28.195312 32.734375 28.316406 32.855469 28.464844 32.855469 L 29.222656 32.855469 L 29.222656 33.609375 C 29.222656 33.761719 29.34375 33.882812 29.492188 33.882812 C 29.644531 33.882812 29.765625 33.761719 29.765625 33.609375 L 29.765625 32.855469 L 30.519531 32.855469 C 30.667969 32.855469 30.789062 32.734375 30.789062 32.585938 C 30.789062 32.433594 30.667969 32.3125 30.519531 32.3125 Z M 30.519531 32.3125 "/>
<path style=" stroke:none;fill-rule:nonzero;fill:rgb(63.137255%,90.588235%,93.72549%);fill-opacity:1;" d="M 21.597656 30.648438 L 25.53125 30.648438 L 25.53125 34.511719 L 21.597656 34.511719 Z M 21.597656 30.648438 "/>
<path style=" stroke:none;fill-rule:nonzero;fill:rgb(100%,100%,100%);fill-opacity:1;" d="M 22.035156 33.316406 L 22.730469 32.359375 C 22.769531 32.308594 22.84375 32.308594 22.878906 32.363281 L 23.472656 33.269531 C 23.507812 33.328125 23.59375 33.324219 23.625 33.265625 L 23.761719 33.027344 C 23.792969 32.96875 23.882812 32.96875 23.917969 33.027344 L 24.03125 33.230469 C 24.066406 33.296875 24.164062 33.289062 24.191406 33.21875 L 24.503906 32.425781 C 24.535156 32.347656 24.648438 32.351562 24.675781 32.433594 L 24.984375 33.339844 C 25.003906 33.398438 24.960938 33.460938 24.898438 33.460938 L 22.105469 33.460938 C 22.035156 33.460938 21.992188 33.375 22.035156 33.316406 Z M 23.394531 32.042969 C 23.394531 31.894531 23.511719 31.777344 23.65625 31.777344 C 23.800781 31.777344 23.917969 31.894531 23.917969 32.042969 C 23.917969 32.1875 23.800781 32.304688 23.65625 32.304688 C 23.511719 32.304688 23.394531 32.1875 23.394531 32.042969 Z M 22.835938 31.929688 C 22.832031 31.929688 22.824219 31.929688 22.820312 31.929688 C 22.820312 31.925781 22.820312 31.921875 22.820312 31.917969 C 22.820312 31.859375 22.773438 31.8125 22.714844 31.8125 C 22.667969 31.8125 22.625 31.847656 22.613281 31.894531 C 22.601562 31.882812 22.589844 31.878906 22.570312 31.878906 C 22.550781 31.878906 22.53125 31.890625 22.519531 31.90625 C 22.507812 31.902344 22.496094 31.902344 22.484375 31.902344 C 22.4375 31.902344 22.398438 31.941406 22.398438 31.988281 C 22.398438 32.035156 22.4375 32.074219 22.484375 32.074219 C 22.503906 32.074219 22.523438 32.066406 22.539062 32.054688 C 22.566406 32.078125 22.613281 32.09375 22.667969 32.09375 C 22.714844 32.09375 22.761719 32.078125 22.789062 32.058594 C 22.800781 32.070312 22.816406 32.074219 22.835938 32.074219 C 22.875 32.074219 22.910156 32.042969 22.910156 32 C 22.910156 31.960938 22.875 31.929688 22.835938 31.929688 Z M 24.664062 31.929688 C 24.660156 31.929688 24.652344 31.929688 24.648438 31.929688 C 24.648438 31.925781 24.648438 31.921875 24.648438 31.917969 C 24.648438 31.859375 24.601562 31.8125 24.546875 31.8125 C 24.496094 31.8125 24.453125 31.847656 24.441406 31.894531 C 24.433594 31.882812 24.417969 31.878906 24.402344 31.878906 C 24.378906 31.878906 24.359375 31.890625 24.347656 31.90625 C 24.335938 31.902344 24.324219 31.902344 24.3125 31.902344 C 24.265625 31.902344 24.226562 31.941406 24.226562 31.988281 C 24.226562 32.035156 24.265625 32.074219 24.3125 32.074219 C 24.332031 32.074219 24.351562 32.066406 24.367188 32.054688 C 24.394531 32.078125 24.441406 32.09375 24.496094 32.09375 C 24.542969 32.09375 24.589844 32.078125 24.617188 32.058594 C 24.628906 32.070312 24.644531 32.074219 24.664062 32.074219 C 24.703125 32.074219 24.738281 32.042969 24.738281 32 C 24.738281 31.960938 24.703125 31.929688 24.664062 31.929688 Z M 24.664062 31.929688 "/>
<path style=" stroke:none;fill-rule:nonzero;fill:rgb(18.823529%,81.176471%,88.235294%);fill-opacity:1;" d="M 22.363281 21.488281 L 38.859375 21.488281 L 38.859375 27.660156 L 22.363281 27.660156 Z M 22.363281 21.488281 "/>
<path style=" stroke:none;fill-rule:nonzero;fill:rgb(80%,80%,80%);fill-opacity:1;" d="M 38.492188 21.488281 L 38.492188 27.292969 L 22.363281 27.292969 L 22.363281 27.660156 L 38.859375 27.660156 L 38.859375 21.488281 Z M 38.492188 21.488281 "/>
<path style=" stroke:none;fill-rule:nonzero;fill:rgb(100%,100%,100%);fill-opacity:1;" d="M 30.859375 25.410156 L 31.867188 25.410156 L 31.867188 26.414062 L 30.859375 26.414062 Z M 30.859375 25.410156 "/>
<path style=" stroke:none;fill-rule:nonzero;fill:rgb(100%,100%,100%);fill-opacity:1;" d="M 32.339844 23.601562 L 33.347656 23.601562 L 33.347656 26.414062 L 32.339844 26.414062 Z M 32.339844 23.601562 "/>
<path style=" stroke:none;fill-rule:nonzero;fill:rgb(100%,100%,100%);fill-opacity:1;" d="M 33.820312 24.347656 L 34.828125 24.347656 L 34.828125 26.414062 L 33.820312 26.414062 Z M 33.820312 24.347656 "/>
<path style=" stroke:none;fill-rule:nonzero;fill:rgb(100%,100%,100%);fill-opacity:1;" d="M 35.300781 24.890625 L 36.308594 24.890625 L 36.308594 26.414062 L 35.300781 26.414062 Z M 35.300781 24.890625 "/>
<path style=" stroke:none;fill-rule:nonzero;fill:rgb(100%,100%,100%);fill-opacity:1;" d="M 36.78125 22.738281 L 37.789062 22.738281 L 37.789062 26.414062 L 36.78125 26.414062 Z M 36.78125 22.738281 "/>
<path style=" stroke:none;fill-rule:nonzero;fill:rgb(100%,100%,100%);fill-opacity:1;" d="M 27.527344 25.722656 C 27.160156 26.332031 26.492188 26.738281 25.726562 26.738281 C 25.167969 26.738281 24.660156 26.519531 24.285156 26.164062 L 25.726562 24.652344 Z M 27.867188 24.496094 L 25.773438 24.496094 L 25.773438 22.40625 C 26.929688 22.40625 27.867188 23.34375 27.867188 24.496094 Z M 28.4375 24.734375 C 28.4375 25.121094 28.328125 25.488281 28.140625 25.800781 L 26.34375 24.726562 L 28.421875 24.726562 Z M 25.476562 22.40625 L 25.476562 24.496094 L 24.039062 26.011719 C 23.632812 25.628906 23.382812 25.089844 23.382812 24.496094 C 23.382812 23.34375 24.320312 22.40625 25.476562 22.40625 Z M 25.476562 22.40625 "/>
<path style=" stroke:none;fill-rule:nonzero;fill:rgb(99.607843%,74.117647%,28.235294%);fill-opacity:1;" d="M 35.070312 32.054688 L 39.996094 32.054688 L 39.996094 36.726562 L 35.070312 36.726562 Z M 35.070312 32.054688 "/>
<path style=" stroke:none;fill-rule:nonzero;fill:rgb(80%,80%,80%);fill-opacity:1;" d="M 39.6875 32.054688 L 39.6875 36.375 L 35.070312 36.375 L 35.070312 36.726562 L 39.996094 36.726562 L 39.996094 32.054688 Z M 39.6875 32.054688 "/>
<path style=" stroke:none;fill-rule:nonzero;fill:rgb(100%,100%,100%);fill-opacity:1;" d="M 35.734375 35.027344 L 36.574219 33.871094 C 36.617188 33.808594 36.710938 33.808594 36.753906 33.875 L 37.46875 34.96875 C 37.515625 35.039062 37.617188 35.035156 37.65625 34.964844 L 37.816406 34.679688 C 37.859375 34.605469 37.964844 34.605469 38.007812 34.679688 L 38.144531 34.921875 C 38.191406 35 38.308594 34.992188 38.339844 34.90625 L 38.71875 33.953125 C 38.753906 33.859375 38.890625 33.863281 38.921875 33.957031 L 39.296875 35.054688 C 39.320312 35.125 39.265625 35.199219 39.191406 35.199219 L 35.820312 35.199219 C 35.730469 35.199219 35.679688 35.097656 35.734375 35.027344 Z M 37.375 33.484375 C 37.375 33.308594 37.515625 33.167969 37.691406 33.167969 C 37.867188 33.167969 38.011719 33.308594 38.011719 33.484375 C 38.011719 33.660156 37.867188 33.804688 37.691406 33.804688 C 37.515625 33.804688 37.375 33.660156 37.375 33.484375 Z M 36.699219 33.347656 C 36.695312 33.347656 36.6875 33.351562 36.683594 33.351562 C 36.683594 33.347656 36.683594 33.34375 36.683594 33.335938 C 36.683594 33.269531 36.625 33.210938 36.558594 33.210938 C 36.496094 33.210938 36.445312 33.253906 36.433594 33.308594 C 36.421875 33.296875 36.402344 33.289062 36.382812 33.289062 C 36.355469 33.289062 36.332031 33.304688 36.316406 33.324219 C 36.304688 33.320312 36.292969 33.316406 36.277344 33.316406 C 36.21875 33.316406 36.171875 33.363281 36.171875 33.421875 C 36.171875 33.476562 36.21875 33.523438 36.277344 33.523438 C 36.300781 33.523438 36.324219 33.515625 36.339844 33.5 C 36.375 33.53125 36.433594 33.546875 36.496094 33.546875 C 36.554688 33.546875 36.609375 33.53125 36.644531 33.507812 C 36.660156 33.519531 36.679688 33.527344 36.699219 33.527344 C 36.75 33.527344 36.789062 33.488281 36.789062 33.4375 C 36.789062 33.390625 36.75 33.347656 36.699219 33.347656 Z M 38.910156 33.347656 C 38.902344 33.347656 38.898438 33.351562 38.890625 33.351562 C 38.890625 33.347656 38.894531 33.34375 38.894531 33.335938 C 38.894531 33.269531 38.835938 33.210938 38.765625 33.210938 C 38.707031 33.210938 38.65625 33.253906 38.644531 33.308594 C 38.628906 33.296875 38.613281 33.289062 38.59375 33.289062 C 38.5625 33.289062 38.539062 33.304688 38.527344 33.324219 C 38.515625 33.320312 38.5 33.316406 38.484375 33.316406 C 38.429688 33.316406 38.382812 33.363281 38.382812 33.421875 C 38.382812 33.476562 38.429688 33.523438 38.484375 33.523438 C 38.511719 33.523438 38.53125 33.515625 38.550781 33.5 C 38.585938 33.53125 38.640625 33.546875 38.707031 33.546875 C 38.765625 33.546875 38.820312 33.53125 38.851562 33.507812 C 38.867188 33.519531 38.886719 33.527344 38.910156 33.527344 C 38.957031 33.527344 39 33.488281 39 33.4375 C 38.996094 33.390625 38.957031 33.347656 38.910156 33.347656 Z M 38.910156 33.347656 "/>
<path style=" stroke:none;fill-rule:nonzero;fill:rgb(18.823529%,81.176471%,88.235294%);fill-opacity:1;" d="M 11.148438 25.695312 C 11.148438 27.371094 9.789062 28.730469 8.109375 28.730469 C 6.433594 28.730469 5.070312 27.371094 5.070312 25.695312 C 5.070312 24.015625 6.433594 22.65625 8.109375 22.65625 C 9.789062 22.65625 11.148438 24.015625 11.148438 25.695312 Z M 11.148438 25.695312 "/>
<path style=" stroke:none;fill-rule:nonzero;fill:rgb(80%,80%,80%);fill-opacity:1;" d="M 8.941406 22.773438 C 10.011719 23.242188 10.761719 24.3125 10.761719 25.554688 C 10.761719 27.234375 9.402344 28.59375 7.722656 28.59375 C 7.4375 28.59375 7.15625 28.550781 6.894531 28.476562 C 7.265625 28.640625 7.675781 28.730469 8.109375 28.730469 C 9.789062 28.730469 11.148438 27.371094 11.148438 25.695312 C 11.148438 24.304688 10.214844 23.132812 8.941406 22.773438 Z M 8.941406 22.773438 "/>
<path style=" stroke:none;fill-rule:nonzero;fill:rgb(100%,100%,100%);fill-opacity:1;" d="M 9.203125 25.050781 C 9.203125 25.617188 8.742188 26.078125 8.175781 26.078125 C 7.605469 26.078125 7.144531 25.617188 7.144531 25.050781 C 7.144531 24.480469 7.605469 24.019531 8.175781 24.019531 C 8.742188 24.019531 9.203125 24.480469 9.203125 25.050781 Z M 9.203125 25.050781 "/>
<path style=" stroke:none;fill-rule:nonzero;fill:rgb(100%,100%,100%);fill-opacity:1;" d="M 9.117188 26.085938 C 9.035156 26.023438 8.917969 26.023438 8.839844 26.089844 C 8.660156 26.234375 8.433594 26.324219 8.1875 26.324219 C 7.949219 26.324219 7.730469 26.242188 7.554688 26.105469 C 7.472656 26.039062 7.355469 26.039062 7.273438 26.109375 C 7.066406 26.289062 6.9375 26.542969 6.9375 26.878906 L 6.9375 26.90625 C 6.9375 27.082031 7.078125 27.21875 7.25 27.21875 L 9.175781 27.21875 C 9.347656 27.21875 9.488281 27.082031 9.488281 26.90625 L 9.488281 26.878906 C 9.488281 26.53125 9.347656 26.265625 9.117188 26.085938 Z M 9.117188 26.085938 "/>
<path style=" stroke:none;fill-rule:nonzero;fill:rgb(100%,100%,100%);fill-opacity:1;" d="M 8.109375 28.0625 C 6.804688 28.0625 5.742188 27 5.742188 25.695312 C 5.742188 24.390625 6.804688 23.328125 8.109375 23.328125 C 9.414062 23.328125 10.476562 24.390625 10.476562 25.695312 C 10.476562 27 9.414062 28.0625 8.109375 28.0625 Z M 8.109375 23.484375 C 6.890625 23.484375 5.902344 24.476562 5.902344 25.695312 C 5.902344 26.910156 6.890625 27.902344 8.109375 27.902344 C 9.328125 27.902344 10.316406 26.910156 10.316406 25.695312 C 10.316406 24.476562 9.328125 23.484375 8.109375 23.484375 Z M 8.109375 23.484375 "/>
<path style=" stroke:none;fill-rule:nonzero;fill:rgb(99.607843%,74.117647%,28.235294%);fill-opacity:1;" d="M 20.59375 15.425781 L 18.316406 15.425781 C 18.15625 15.425781 18.023438 15.558594 18.023438 15.71875 L 18.023438 18 C 18.023438 18.160156 18.15625 18.292969 18.316406 18.292969 L 20.59375 18.292969 C 20.757812 18.292969 20.886719 18.160156 20.886719 18 L 20.886719 15.71875 C 20.886719 15.558594 20.757812 15.425781 20.59375 15.425781 Z M 20.59375 15.425781 "/>
<path style=" stroke:none;fill-rule:nonzero;fill:rgb(80%,80%,80%);fill-opacity:1;" d="M 20.65625 15.433594 C 20.6875 15.480469 20.703125 15.535156 20.703125 15.59375 L 20.703125 17.871094 C 20.703125 18.035156 20.574219 18.164062 20.410156 18.164062 L 18.132812 18.164062 C 18.109375 18.164062 18.089844 18.164062 18.070312 18.15625 C 18.121094 18.238281 18.214844 18.292969 18.316406 18.292969 L 20.59375 18.292969 C 20.757812 18.292969 20.886719 18.160156 20.886719 18 L 20.886719 15.71875 C 20.886719 15.578125 20.789062 15.460938 20.65625 15.433594 Z M 20.65625 15.433594 "/>
<path style=" stroke:none;fill-rule:nonzero;fill:rgb(100%,100%,100%);fill-opacity:1;" d="M 20.285156 16.453125 L 20.054688 16.347656 L 20.054688 16.5 L 18.707031 16.5 L 18.707031 16.628906 L 20.058594 16.628906 L 20.058594 16.78125 L 20.285156 16.667969 L 20.515625 16.558594 Z M 20.285156 16.453125 "/>
<path style=" stroke:none;fill-rule:nonzero;fill:rgb(100%,100%,100%);fill-opacity:1;" d="M 18.628906 17.046875 L 18.855469 16.941406 L 18.855469 17.09375 L 20.203125 17.09375 L 20.203125 17.21875 L 18.855469 17.21875 L 18.851562 17.371094 L 18.398438 17.152344 Z M 18.628906 17.046875 "/>
<path style=" stroke:none;fill-rule:nonzero;fill:rgb(58.039216%,88.627451%,24.705882%);fill-opacity:1;" d="M 10.839844 31.214844 L 8.460938 31.214844 C 8.292969 31.214844 8.15625 31.351562 8.15625 31.519531 L 8.15625 33.898438 C 8.15625 34.070312 8.292969 34.207031 8.460938 34.207031 L 10.839844 34.207031 C 11.011719 34.207031 11.148438 34.070312 11.148438 33.898438 L 11.148438 31.519531 C 11.148438 31.351562 11.011719 31.214844 10.839844 31.214844 Z M 10.839844 31.214844 "/>
<path style=" stroke:none;fill-rule:nonzero;fill:rgb(80%,80%,80%);fill-opacity:1;" d="M 10.90625 31.222656 C 10.9375 31.269531 10.953125 31.328125 10.953125 31.386719 L 10.953125 33.765625 C 10.953125 33.9375 10.816406 34.074219 10.648438 34.074219 L 8.269531 34.074219 C 8.246094 34.074219 8.226562 34.070312 8.207031 34.066406 C 8.261719 34.152344 8.355469 34.207031 8.460938 34.207031 L 10.839844 34.207031 C 11.011719 34.207031 11.148438 34.070312 11.148438 33.898438 L 11.148438 31.519531 C 11.148438 31.375 11.042969 31.25 10.90625 31.222656 Z M 10.90625 31.222656 "/>
<path style=" stroke:none;fill-rule:nonzero;fill:rgb(100%,100%,100%);fill-opacity:1;" d="M 9.042969 33.136719 L 8.886719 33.136719 L 8.433594 32.683594 L 8.851562 32.269531 L 9.007812 32.269531 L 8.589844 32.683594 Z M 9.042969 33.136719 "/>
<path style=" stroke:none;fill-rule:nonzero;fill:rgb(100%,100%,100%);fill-opacity:1;" d="M 10.886719 32.683594 L 10.433594 33.136719 L 10.277344 33.136719 L 10.730469 32.683594 L 10.3125 32.269531 L 10.46875 32.269531 Z M 10.886719 32.683594 "/>
<path style=" stroke:none;fill-rule:nonzero;fill:rgb(100%,100%,100%);fill-opacity:1;" d="M 10.003906 32.269531 L 9.445312 33.136719 L 9.3125 33.136719 L 9.875 32.269531 Z M 10.003906 32.269531 "/>
<path style=" stroke:none;fill-rule:nonzero;fill:rgb(58.039216%,88.627451%,24.705882%);fill-opacity:1;" d="M 42.742188 27.445312 L 40.507812 27.445312 C 40.347656 27.445312 40.21875 27.574219 40.21875 27.734375 L 40.21875 29.96875 C 40.21875 30.128906 40.347656 30.257812 40.507812 30.257812 L 42.742188 30.257812 C 42.898438 30.257812 43.027344 30.128906 43.027344 29.96875 L 43.027344 27.734375 C 43.027344 27.574219 42.898438 27.445312 42.742188 27.445312 Z M 42.742188 27.445312 "/>
<path style=" stroke:none;fill-rule:nonzero;fill:rgb(80%,80%,80%);fill-opacity:1;" d="M 42.800781 27.453125 C 42.832031 27.496094 42.847656 27.550781 42.847656 27.609375 L 42.847656 29.84375 C 42.847656 30.003906 42.71875 30.132812 42.558594 30.132812 L 40.324219 30.132812 C 40.304688 30.132812 40.285156 30.128906 40.265625 30.125 C 40.316406 30.203125 40.40625 30.257812 40.507812 30.257812 L 42.742188 30.257812 C 42.898438 30.257812 43.027344 30.128906 43.027344 29.96875 L 43.027344 27.734375 C 43.027344 27.597656 42.929688 27.480469 42.800781 27.453125 Z M 42.800781 27.453125 "/>
<path style=" stroke:none;fill-rule:nonzero;fill:rgb(100%,100%,100%);fill-opacity:1;" d="M 41.144531 29.691406 C 41.089844 29.691406 41.035156 29.667969 41 29.625 C 40.964844 29.589844 40.949219 29.542969 40.953125 29.496094 C 40.957031 29.445312 40.964844 29.394531 40.96875 29.347656 C 40.988281 29.210938 41.003906 29.09375 40.957031 29.007812 C 40.949219 28.992188 40.902344 28.949219 40.867188 28.917969 L 40.828125 28.886719 L 40.867188 28.855469 C 40.90625 28.820312 40.949219 28.78125 40.957031 28.769531 C 41.003906 28.664062 40.980469 28.546875 40.964844 28.453125 C 40.960938 28.429688 40.953125 28.410156 40.953125 28.390625 C 40.945312 28.34375 40.960938 28.296875 40.992188 28.261719 C 41.027344 28.21875 41.085938 28.191406 41.140625 28.191406 L 41.140625 28.273438 C 41.109375 28.273438 41.074219 28.289062 41.054688 28.316406 C 41.042969 28.328125 41.03125 28.347656 41.035156 28.378906 C 41.035156 28.394531 41.039062 28.414062 41.042969 28.4375 C 41.0625 28.535156 41.089844 28.671875 41.03125 28.804688 C 41.019531 28.828125 40.984375 28.863281 40.957031 28.886719 C 40.984375 28.914062 41.015625 28.945312 41.027344 28.96875 C 41.089844 29.078125 41.070312 29.210938 41.050781 29.355469 C 41.046875 29.40625 41.039062 29.453125 41.035156 29.503906 C 41.03125 29.527344 41.042969 29.550781 41.058594 29.570312 C 41.082031 29.59375 41.113281 29.609375 41.144531 29.609375 Z M 41.144531 29.691406 "/>
<path style=" stroke:none;fill-rule:nonzero;fill:rgb(100%,100%,100%);fill-opacity:1;" d="M 42.0625 29.691406 L 42.0625 29.605469 C 42.09375 29.605469 42.125 29.59375 42.144531 29.570312 C 42.164062 29.550781 42.171875 29.527344 42.167969 29.503906 C 42.164062 29.453125 42.160156 29.40625 42.152344 29.355469 C 42.132812 29.210938 42.117188 29.074219 42.175781 28.96875 C 42.1875 28.945312 42.222656 28.914062 42.25 28.886719 C 42.21875 28.863281 42.1875 28.828125 42.175781 28.804688 C 42.113281 28.671875 42.140625 28.535156 42.160156 28.4375 C 42.164062 28.414062 42.167969 28.394531 42.171875 28.378906 C 42.175781 28.347656 42.160156 28.328125 42.152344 28.316406 C 42.128906 28.289062 42.09375 28.273438 42.0625 28.273438 L 42.0625 28.191406 C 42.121094 28.191406 42.175781 28.21875 42.210938 28.261719 C 42.246094 28.296875 42.257812 28.34375 42.253906 28.390625 C 42.25 28.410156 42.246094 28.429688 42.242188 28.453125 C 42.222656 28.546875 42.199219 28.664062 42.25 28.769531 C 42.253906 28.78125 42.296875 28.820312 42.335938 28.855469 L 42.375 28.886719 L 42.339844 28.917969 C 42.300781 28.949219 42.253906 28.992188 42.246094 29.007812 C 42.199219 29.09375 42.214844 29.210938 42.234375 29.347656 C 42.242188 29.394531 42.246094 29.445312 42.25 29.496094 C 42.253906 29.542969 42.238281 29.589844 42.203125 29.625 C 42.167969 29.667969 42.117188 29.691406 42.0625 29.691406 Z M 42.0625 29.691406 "/>
<path style=" stroke:none;fill-rule:nonzero;fill:rgb(58.039216%,88.627451%,24.705882%);fill-opacity:1;" d="M 36.726562 13.5 L 34.253906 13.5 C 34.074219 13.5 33.933594 13.644531 33.933594 13.820312 L 33.933594 16.292969 C 33.933594 16.46875 34.078125 16.609375 34.253906 16.609375 L 36.726562 16.609375 C 36.902344 16.609375 37.042969 16.46875 37.042969 16.292969 L 37.042969 13.820312 C 37.042969 13.644531 36.902344 13.5 36.726562 13.5 Z M 36.726562 13.5 "/>
<path style=" stroke:none;fill-rule:nonzero;fill:rgb(80%,80%,80%);fill-opacity:1;" d="M 36.792969 13.507812 C 36.824219 13.558594 36.84375 13.617188 36.84375 13.679688 L 36.84375 16.152344 C 36.84375 16.328125 36.699219 16.472656 36.523438 16.472656 L 34.050781 16.472656 C 34.027344 16.472656 34.007812 16.46875 33.984375 16.464844 C 34.042969 16.550781 34.140625 16.609375 34.253906 16.609375 L 36.726562 16.609375 C 36.902344 16.609375 37.042969 16.46875 37.042969 16.292969 L 37.042969 13.820312 C 37.042969 13.664062 36.9375 13.539062 36.792969 13.507812 Z M 36.792969 13.507812 "/>
<path style=" stroke:none;fill-rule:nonzero;fill:rgb(100%,100%,100%);fill-opacity:1;" d="M 35.058594 15.9375 L 34.707031 15.9375 L 34.707031 14.15625 L 35.058594 14.15625 L 35.058594 14.265625 L 34.816406 14.265625 L 34.816406 15.832031 L 35.058594 15.832031 Z M 35.058594 15.9375 "/>
<path style=" stroke:none;fill-rule:nonzero;fill:rgb(100%,100%,100%);fill-opacity:1;" d="M 36.355469 15.9375 L 36 15.9375 L 36 15.832031 L 36.246094 15.832031 L 36.246094 14.265625 L 36 14.265625 L 36 14.15625 L 36.355469 14.15625 Z M 36.355469 15.9375 "/>
<path style=" stroke:none;fill-rule:nonzero;fill:rgb(43.921569%,79.215686%,30.196078%);fill-opacity:1;" d="M 42.113281 21.78125 C 42.164062 21.269531 42.625 20.894531 43.136719 20.945312 C 43.652344 20.996094 44.027344 21.453125 43.976562 21.96875 C 43.925781 22.480469 43.46875 22.855469 42.953125 22.804688 C 42.4375 22.753906 42.0625 22.296875 42.113281 21.78125 Z M 42.113281 21.78125 "/>
<path style=" stroke:none;fill-rule:nonzero;fill:rgb(100%,100%,100%);fill-opacity:1;" d="M 43.582031 21.613281 L 43.445312 21.550781 L 43.445312 21.640625 L 42.648438 21.640625 L 42.648438 21.71875 L 43.445312 21.71875 L 43.445312 21.808594 L 43.582031 21.742188 L 43.714844 21.675781 Z M 43.582031 21.613281 "/>
<path style=" stroke:none;fill-rule:nonzero;fill:rgb(100%,100%,100%);fill-opacity:1;" d="M 42.597656 21.964844 L 42.734375 21.902344 L 42.734375 21.992188 L 43.53125 21.992188 L 43.53125 22.070312 L 42.734375 22.070312 L 42.734375 22.160156 L 42.597656 22.09375 L 42.464844 22.027344 Z M 42.597656 21.964844 "/>
<path style=" stroke:none;fill-rule:nonzero;fill:rgb(43.921569%,79.215686%,30.196078%);fill-opacity:1;" d="M 27.910156 12.199219 C 27.960938 11.6875 28.417969 11.3125 28.933594 11.363281 C 29.445312 11.414062 29.820312 11.871094 29.769531 12.382812 C 29.71875 12.898438 29.261719 13.273438 28.75 13.222656 C 28.234375 13.171875 27.859375 12.714844 27.910156 12.199219 Z M 27.910156 12.199219 "/>
<path style=" stroke:none;fill-rule:nonzero;fill:rgb(100%,100%,100%);fill-opacity:1;" d="M 29.375 12.03125 L 29.238281 11.96875 L 29.238281 12.058594 L 28.441406 12.058594 L 28.441406 12.136719 L 29.242188 12.136719 L 29.242188 12.226562 L 29.375 12.160156 L 29.511719 12.09375 Z M 29.375 12.03125 "/>
<path style=" stroke:none;fill-rule:nonzero;fill:rgb(100%,100%,100%);fill-opacity:1;" d="M 28.394531 12.382812 L 28.53125 12.320312 L 28.527344 12.410156 L 29.328125 12.410156 L 29.328125 12.484375 L 28.527344 12.484375 L 28.527344 12.578125 L 28.394531 12.511719 L 28.257812 12.445312 Z M 28.394531 12.382812 "/>
<path style=" stroke:none;fill-rule:nonzero;fill:rgb(43.921569%,79.215686%,30.196078%);fill-opacity:1;" d="M 4.484375 19.835938 C 4.535156 19.324219 4.992188 18.945312 5.503906 19 C 6.019531 19.050781 6.394531 19.507812 6.34375 20.019531 C 6.292969 20.535156 5.835938 20.910156 5.320312 20.859375 C 4.808594 20.808594 4.433594 20.351562 4.484375 19.835938 Z M 4.484375 19.835938 "/>
<path style=" stroke:none;fill-rule:nonzero;fill:rgb(100%,100%,100%);fill-opacity:1;" d="M 5.949219 19.667969 L 5.8125 19.605469 L 5.8125 19.695312 L 5.015625 19.695312 L 5.015625 19.773438 L 5.8125 19.773438 L 5.816406 19.863281 L 5.949219 19.796875 L 6.085938 19.730469 Z M 5.949219 19.667969 "/>
<path style=" stroke:none;fill-rule:nonzero;fill:rgb(100%,100%,100%);fill-opacity:1;" d="M 4.96875 20.019531 L 5.101562 19.957031 L 5.101562 20.046875 L 5.898438 20.046875 L 5.898438 20.121094 L 5.101562 20.121094 L 5.101562 20.210938 L 4.964844 20.148438 L 4.832031 20.082031 Z M 4.96875 20.019531 "/>
<path style=" stroke:none;fill-rule:nonzero;fill:rgb(97.647059%,82.745098%,55.686275%);fill-opacity:1;" d="M 13.460938 12.636719 C 13.511719 12.121094 13.96875 11.746094 14.480469 11.796875 C 14.996094 11.847656 15.371094 12.304688 15.320312 12.820312 C 15.269531 13.332031 14.8125 13.707031 14.296875 13.65625 C 13.785156 13.605469 13.410156 13.148438 13.460938 12.636719 Z M 13.460938 12.636719 "/>
<path style=" stroke:none;fill-rule:nonzero;fill:rgb(100%,100%,100%);fill-opacity:1;" d="M 14.121094 13.054688 C 14.113281 13.054688 14.105469 13.050781 14.097656 13.042969 L 13.835938 12.78125 C 13.832031 12.777344 13.828125 12.765625 13.828125 12.757812 C 13.828125 12.75 13.832031 12.742188 13.835938 12.734375 L 14.097656 12.472656 C 14.113281 12.460938 14.132812 12.460938 14.144531 12.472656 C 14.15625 12.488281 14.15625 12.507812 14.144531 12.519531 L 13.90625 12.757812 L 14.144531 13 C 14.15625 13.011719 14.15625 13.03125 14.144531 13.042969 C 14.136719 13.050781 14.128906 13.054688 14.121094 13.054688 Z M 14.699219 13.054688 C 14.707031 13.054688 14.714844 13.050781 14.722656 13.042969 L 14.984375 12.78125 C 14.988281 12.777344 14.992188 12.765625 14.992188 12.757812 C 14.992188 12.75 14.988281 12.742188 14.984375 12.734375 L 14.722656 12.472656 C 14.707031 12.460938 14.6875 12.460938 14.675781 12.472656 C 14.664062 12.488281 14.664062 12.507812 14.675781 12.519531 L 14.914062 12.757812 L 14.675781 13 C 14.664062 13.011719 14.664062 13.03125 14.675781 13.042969 C 14.679688 13.050781 14.691406 13.054688 14.699219 13.054688 Z M 14.28125 13.054688 C 14.277344 13.054688 14.269531 13.050781 14.265625 13.050781 C 14.25 13.042969 14.242188 13.023438 14.25 13.007812 L 14.480469 12.484375 C 14.488281 12.46875 14.503906 12.460938 14.523438 12.46875 C 14.539062 12.472656 14.546875 12.492188 14.539062 12.507812 L 14.308594 13.035156 C 14.304688 13.046875 14.292969 13.054688 14.28125 13.054688 Z M 14.28125 13.054688 "/>
<path style=" stroke:none;fill-rule:nonzero;fill:rgb(97.647059%,82.745098%,55.686275%);fill-opacity:1;" d="M 46.066406 28.847656 C 46.117188 28.335938 46.574219 27.960938 47.085938 28.011719 C 47.601562 28.0625 47.976562 28.519531 47.925781 29.035156 C 47.875 29.546875 47.417969 29.921875 46.902344 29.871094 C 46.390625 29.820312 46.015625 29.363281 46.066406 28.847656 Z M 46.066406 28.847656 "/>
<path style=" stroke:none;fill-rule:nonzero;fill:rgb(100%,100%,100%);fill-opacity:1;" d="M 46.726562 29.265625 C 46.71875 29.265625 46.710938 29.265625 46.703125 29.257812 L 46.441406 28.996094 C 46.4375 28.988281 46.433594 28.980469 46.433594 28.972656 C 46.433594 28.964844 46.4375 28.957031 46.441406 28.949219 L 46.703125 28.6875 C 46.71875 28.675781 46.738281 28.675781 46.75 28.6875 C 46.761719 28.699219 46.761719 28.722656 46.75 28.734375 L 46.511719 28.972656 L 46.75 29.210938 C 46.761719 29.226562 46.761719 29.246094 46.75 29.257812 C 46.742188 29.265625 46.734375 29.265625 46.726562 29.265625 Z M 47.304688 29.265625 C 47.3125 29.265625 47.320312 29.265625 47.328125 29.257812 L 47.589844 28.996094 C 47.59375 28.988281 47.597656 28.980469 47.597656 28.972656 C 47.597656 28.964844 47.59375 28.957031 47.589844 28.949219 L 47.328125 28.6875 C 47.3125 28.675781 47.292969 28.675781 47.28125 28.6875 C 47.269531 28.699219 47.269531 28.722656 47.28125 28.734375 L 47.519531 28.972656 L 47.28125 29.210938 C 47.269531 29.226562 47.269531 29.246094 47.28125 29.257812 C 47.285156 29.265625 47.296875 29.265625 47.304688 29.265625 Z M 46.886719 29.265625 C 46.882812 29.265625 46.875 29.265625 46.871094 29.265625 C 46.855469 29.257812 46.847656 29.238281 46.855469 29.222656 L 47.085938 28.699219 C 47.09375 28.679688 47.109375 28.671875 47.128906 28.679688 C 47.144531 28.6875 47.152344 28.707031 47.144531 28.722656 L 46.914062 29.246094 C 46.910156 29.261719 46.898438 29.265625 46.886719 29.265625 Z M 46.886719 29.265625 "/>
<path style=" stroke:none;fill-rule:nonzero;fill:rgb(97.647059%,82.745098%,55.686275%);fill-opacity:1;" d="M 39.0625 13.398438 C 39.113281 12.882812 39.574219 12.507812 40.085938 12.558594 C 40.601562 12.609375 40.976562 13.066406 40.925781 13.582031 C 40.875 14.09375 40.417969 14.472656 39.902344 14.417969 C 39.386719 14.367188 39.011719 13.910156 39.0625 13.398438 Z M 39.0625 13.398438 "/>
<path style=" stroke:none;fill-rule:nonzero;fill:rgb(100%,100%,100%);fill-opacity:1;" d="M 39.726562 13.816406 C 39.71875 13.816406 39.710938 13.8125 39.703125 13.804688 L 39.441406 13.542969 C 39.433594 13.539062 39.429688 13.53125 39.429688 13.519531 C 39.429688 13.511719 39.433594 13.503906 39.441406 13.5 L 39.703125 13.234375 C 39.714844 13.222656 39.734375 13.222656 39.75 13.234375 C 39.761719 13.25 39.761719 13.269531 39.75 13.28125 L 39.507812 13.519531 L 39.75 13.761719 C 39.761719 13.773438 39.761719 13.792969 39.75 13.804688 C 39.742188 13.8125 39.734375 13.816406 39.726562 13.816406 Z M 40.300781 13.816406 C 40.308594 13.816406 40.320312 13.8125 40.324219 13.804688 L 40.585938 13.542969 C 40.59375 13.539062 40.597656 13.53125 40.597656 13.519531 C 40.597656 13.511719 40.59375 13.503906 40.585938 13.5 L 40.324219 13.234375 C 40.3125 13.222656 40.292969 13.222656 40.277344 13.234375 C 40.265625 13.25 40.265625 13.269531 40.277344 13.28125 L 40.519531 13.519531 L 40.277344 13.761719 C 40.265625 13.773438 40.265625 13.792969 40.277344 13.804688 C 40.285156 13.8125 40.292969 13.816406 40.300781 13.816406 Z M 39.882812 13.816406 C 39.878906 13.816406 39.875 13.816406 39.871094 13.8125 C 39.855469 13.804688 39.847656 13.785156 39.855469 13.769531 L 40.082031 13.246094 C 40.089844 13.230469 40.109375 13.222656 40.125 13.230469 C 40.140625 13.238281 40.148438 13.253906 40.144531 13.273438 L 39.914062 13.796875 C 39.910156 13.808594 39.898438 13.816406 39.882812 13.816406 Z M 39.882812 13.816406 "/>
<path style=" stroke:none;fill-rule:nonzero;fill:rgb(63.137255%,90.588235%,93.72549%);fill-opacity:1;" d="M 8.839844 14.238281 L 8.839844 15.28125 L 8.472656 15.28125 C 8.300781 15.28125 8.160156 15.144531 8.160156 14.972656 L 8.160156 14.550781 C 8.160156 14.378906 8.300781 14.238281 8.472656 14.238281 Z M 10.164062 15.257812 C 10.039062 15.402344 8.976562 15.28125 8.976562 15.28125 L 8.976562 14.238281 C 8.976562 14.238281 9.171875 14.046875 9.222656 13.875 C 9.273438 13.703125 9.320312 13.453125 9.453125 13.488281 C 9.585938 13.523438 9.644531 14.003906 9.480469 14.238281 C 9.480469 14.238281 10 14.097656 10.140625 14.25 C 10.273438 14.394531 10.28125 15.125 10.164062 15.257812 Z M 10.164062 15.257812 "/>
<path style=" stroke:none;fill-rule:nonzero;fill:rgb(63.137255%,90.588235%,93.72549%);fill-opacity:1;" d="M 44.757812 17.785156 L 44.757812 18.832031 L 45.125 18.832031 C 45.296875 18.832031 45.4375 18.691406 45.4375 18.519531 L 45.4375 18.097656 C 45.4375 17.925781 45.296875 17.785156 45.125 17.785156 Z M 43.433594 18.808594 C 43.5625 18.949219 44.621094 18.832031 44.621094 18.832031 L 44.621094 17.785156 C 44.621094 17.785156 44.425781 17.597656 44.375 17.421875 C 44.324219 17.25 44.277344 17 44.144531 17.035156 C 44.011719 17.070312 43.953125 17.554688 44.117188 17.785156 C 44.117188 17.785156 43.597656 17.644531 43.457031 17.796875 C 43.324219 17.941406 43.316406 18.675781 43.433594 18.808594 Z M 43.433594 18.808594 "/>
<path style=" stroke:none;fill-rule:nonzero;fill:rgb(63.137255%,90.588235%,93.72549%);fill-opacity:1;" d="M 24.691406 13.597656 L 24.691406 14.644531 L 25.058594 14.644531 C 25.230469 14.644531 25.371094 14.503906 25.371094 14.332031 L 25.371094 13.910156 C 25.371094 13.738281 25.230469 13.597656 25.058594 13.597656 Z M 23.367188 14.621094 C 23.492188 14.765625 24.554688 14.644531 24.554688 14.644531 L 24.554688 13.597656 C 24.554688 13.597656 24.359375 13.410156 24.308594 13.238281 C 24.257812 13.066406 24.210938 12.816406 24.078125 12.851562 C 23.945312 12.886719 23.886719 13.367188 24.050781 13.597656 C 24.050781 13.597656 23.53125 13.460938 23.390625 13.613281 C 23.257812 13.757812 23.25 14.488281 23.367188 14.621094 Z M 23.367188 14.621094 "/>
<path style=" stroke:none;fill-rule:nonzero;fill:rgb(43.921569%,79.215686%,30.196078%);fill-opacity:1;" d="M 8.09375 21.050781 L 8.03125 20.742188 C 8.03125 20.738281 8.027344 20.734375 8.023438 20.734375 L 7.714844 20.667969 C 7.703125 20.664062 7.703125 20.644531 7.714844 20.640625 L 8.023438 20.582031 C 8.03125 20.578125 8.035156 20.574219 8.035156 20.570312 L 8.101562 20.261719 C 8.105469 20.25 8.125 20.25 8.125 20.261719 L 8.1875 20.570312 C 8.1875 20.578125 8.191406 20.582031 8.195312 20.582031 L 8.503906 20.648438 C 8.519531 20.652344 8.519531 20.671875 8.503906 20.675781 L 8.195312 20.734375 C 8.191406 20.734375 8.1875 20.738281 8.183594 20.746094 L 8.117188 21.050781 C 8.117188 21.066406 8.097656 21.066406 8.09375 21.050781 Z M 31.671875 15.085938 L 31.613281 14.777344 C 31.609375 14.773438 31.605469 14.769531 31.601562 14.765625 L 31.296875 14.699219 C 31.28125 14.699219 31.28125 14.679688 31.296875 14.675781 L 31.605469 14.613281 C 31.609375 14.613281 31.613281 14.609375 31.613281 14.605469 L 31.679688 14.296875 C 31.683594 14.285156 31.703125 14.285156 31.707031 14.296875 L 31.765625 14.605469 C 31.765625 14.613281 31.769531 14.617188 31.777344 14.617188 L 32.082031 14.683594 C 32.097656 14.6875 32.097656 14.707031 32.082031 14.707031 L 31.773438 14.769531 C 31.769531 14.769531 31.765625 14.773438 31.765625 14.777344 L 31.699219 15.085938 C 31.695312 15.101562 31.675781 15.101562 31.671875 15.085938 Z M 43.164062 14.679688 L 43.105469 14.371094 C 43.105469 14.367188 43.101562 14.363281 43.09375 14.363281 L 42.789062 14.296875 C 42.773438 14.292969 42.773438 14.273438 42.789062 14.269531 L 43.097656 14.210938 C 43.101562 14.210938 43.105469 14.207031 43.105469 14.199219 L 43.171875 13.894531 C 43.175781 13.878906 43.195312 13.878906 43.199219 13.894531 L 43.257812 14.203125 C 43.261719 14.207031 43.265625 14.210938 43.269531 14.210938 L 43.574219 14.277344 C 43.589844 14.28125 43.589844 14.300781 43.574219 14.304688 L 43.265625 14.363281 C 43.261719 14.367188 43.257812 14.371094 43.257812 14.375 L 43.191406 14.679688 C 43.1875 14.695312 43.167969 14.695312 43.164062 14.679688 Z M 42.171875 25.058594 L 42.113281 24.75 C 42.109375 24.746094 42.105469 24.742188 42.101562 24.738281 L 41.792969 24.671875 C 41.78125 24.671875 41.78125 24.648438 41.796875 24.648438 L 42.105469 24.585938 C 42.109375 24.585938 42.113281 24.582031 42.113281 24.578125 L 42.179688 24.269531 C 42.183594 24.257812 42.203125 24.257812 42.207031 24.269531 L 42.265625 24.578125 C 42.265625 24.582031 42.269531 24.589844 42.277344 24.589844 L 42.582031 24.65625 C 42.597656 24.660156 42.597656 24.679688 42.582031 24.679688 L 42.273438 24.742188 C 42.269531 24.742188 42.265625 24.746094 42.265625 24.75 L 42.199219 25.058594 C 42.195312 25.074219 42.175781 25.070312 42.171875 25.058594 Z M 19.84375 12.714844 L 19.785156 12.40625 C 19.78125 12.402344 19.777344 12.394531 19.773438 12.394531 L 19.464844 12.328125 C 19.453125 12.324219 19.453125 12.304688 19.464844 12.304688 L 19.773438 12.242188 C 19.78125 12.242188 19.785156 12.238281 19.785156 12.234375 L 19.851562 11.925781 C 19.855469 11.910156 19.875 11.914062 19.878906 11.925781 L 19.9375 12.234375 C 19.9375 12.238281 19.941406 12.242188 19.949219 12.246094 L 20.253906 12.3125 C 20.269531 12.3125 20.269531 12.335938 20.253906 12.335938 L 19.945312 12.398438 C 19.941406 12.398438 19.9375 12.402344 19.9375 12.40625 L 19.867188 12.714844 C 19.867188 12.726562 19.847656 12.726562 19.84375 12.714844 Z M 2.695312 31.324219 L 2.636719 31.015625 C 2.632812 31.007812 2.628906 31.003906 2.625 31.003906 L 2.316406 30.9375 C 2.304688 30.933594 2.304688 30.914062 2.320312 30.910156 L 2.625 30.851562 C 2.632812 30.851562 2.636719 30.847656 2.636719 30.839844 L 2.703125 30.535156 C 2.707031 30.519531 2.726562 30.519531 2.730469 30.535156 L 2.789062 30.84375 C 2.789062 30.847656 2.792969 30.851562 2.800781 30.851562 L 3.105469 30.917969 C 3.121094 30.921875 3.121094 30.941406 3.105469 30.945312 L 2.796875 31.003906 C 2.792969 31.007812 2.789062 31.011719 2.789062 31.015625 L 2.722656 31.324219 C 2.71875 31.335938 2.699219 31.335938 2.695312 31.324219 Z M 2.695312 31.324219 "/>
</g>
</svg>
