<svg xmlns="http://www.w3.org/2000/svg" enable-background="new 0 0 24 24" viewBox="0 0 24 24"><path fill="#6563ff" d="M12.0068359,13h0.0005493c0.276001-0.0001831,0.4996338-0.223999,0.4994507-0.5v-2c0-0.276123-0.223877-0.5-0.5-0.5s-0.5,0.223877-0.5,0.5v2.0005493C11.507019,12.7765503,11.730835,13.0001831,12.0068359,13z M20.703125,8.8496704l-0.0244141-0.015625c-0.6062622-0.3514404-1.3282471-0.4447021-2.0039062-0.2587891c-0.3894653,0.1048584-0.7367554,0.3082886-1.0310669,0.5727539L4.75,1.7041016C4.6741333,1.6602783,4.5880127,1.637207,4.5003662,1.637085C4.2242432,1.6369019,4.0002441,1.8605957,4,2.1367188v14.7155762C3.5515137,16.9616089,3.131897,17.1759033,2.7919922,17.5C2.2835693,17.9897461,1.9974365,18.6660767,2,19.3720093v0.0020142c-0.0041504,1.4194946,1.12677,2.5821533,2.5458984,2.6171875C4.7441406,21.9970703,4.9423828,22,5.140625,22c6.8474731-0.0108643,13.161438-3.6984863,16.5351562-9.6571655C22.3538818,11.1074829,21.9220581,9.5567627,20.703125,8.8496704z M5,3.0029297l12.0222168,6.9401855c-2.465271,4.2211914-6.9837036,6.8276978-11.8815918,6.8312988c-0.0465698,0-0.0939331-0.0020142-0.140625-0.0024414V3.0029297z M20.8046875,11.8505859C17.6090698,17.4957886,11.6275635,20.989624,5.140625,21c-0.1884766,0-0.3769531-0.0029297-0.5634766-0.0087891C3.6986084,20.9702148,2.9979248,20.2508545,3,19.3720703c0.0001221-0.8867798,0.718689-1.605835,1.6054688-1.6064453c0.0175781,0,0.0351562,0,0.0527344,0.0009766c5.4943237,0.1845093,10.6346436-2.7041626,13.3339844-7.4932251c0.2039185-0.3618164,0.5450439-0.6262207,0.9462891-0.7333984c0.4110718-0.1139526,0.8505859-0.0598145,1.2217407,0.1504517l0.0204468,0.0126953C20.940979,10.1278687,21.2189331,11.0845947,20.8046875,11.8505859z M8.5068359,10.5c0.828064-0.0009155,1.4990845-0.671936,1.5-1.5c0-0.8284302-0.6715698-1.5-1.5-1.5s-1.5,0.6715698-1.5,1.5S7.6784058,10.5,8.5068359,10.5z M8.5068359,8.5c0.2759399,0.0005493,0.4994507,0.2240601,0.5,0.5c0,0.276123-0.223877,0.5-0.5,0.5s-0.5-0.223877-0.5-0.5S8.2307129,8.5,8.5068359,8.5z M8.5068359,14.9775391c0.828064-0.0009155,1.4990845-0.671936,1.5-1.5c0-0.8284302-0.6715698-1.5-1.5-1.5s-1.5,0.6715698-1.5,1.5S7.6784058,14.9775391,8.5068359,14.9775391z M8.5068359,12.9775391c0.2759399,0.0005493,0.4994507,0.2240601,0.5,0.5c0,0.276123-0.223877,0.5-0.5,0.5s-0.5-0.223877-0.5-0.5S8.2307129,12.9775391,8.5068359,12.9775391z"/></svg>