<svg id="SvgjsSvg1011" width="288" height="288" xmlns="http://www.w3.org/2000/svg" version="1.1" xmlns:xlink="http://www.w3.org/1999/xlink" xmlns:svgjs="http://svgjs.com/svgjs"><defs id="SvgjsDefs1012"></defs><g id="SvgjsG1013" transform="matrix(1,0,0,1,0,0)"><svg xmlns="http://www.w3.org/2000/svg" xmlns:svgjs="http://svgjs.com/svgjs" xmlns:xlink="http://www.w3.org/1999/xlink" width="288" height="288"><svg xmlns="http://www.w3.org/2000/svg" width="288" height="288" enable-background="new 0 0 24 24" viewBox="0 0 24 24"><path fill="#767fad" d="M21.5,6h-6C15.223877,6,15,6.223877,15,6.5S15.223877,7,15.5,7h4.7929688l-7.2930298,7.2930298l-3.6464844-3.6464844c-0.1895142-0.1831055-0.4863281-0.1843262-0.680542-0.0091553c-0.0080566,0.0045776-0.0195312,0.0024414-0.0264282,0.0090942l-6.5,6.5c-0.09375,0.09375-0.1464233,0.2208862-0.1464233,0.3534546C2,17.776062,2.223877,17.999939,2.5,18c0.1326294,0.0001221,0.2598267-0.0526123,0.3534546-0.1465454l6.1464844-6.1464844l3.6465454,3.6465454C12.7369385,15.4440308,12.8619385,15.499939,13,15.5c0.1326294,0.0001221,0.2598267-0.0526123,0.3534546-0.1465454L21,7.7069092v4.7936401C21.0001831,12.7765503,21.223999,13.0001831,21.5,13h0.0006104C21.7765503,12.9998169,22.0001831,12.776001,22,12.5V6.4993896C21.9998169,6.2234497,21.776001,5.9998169,21.5,6z" class="color000 svgShape color767fad"></path></svg></svg></g></svg>