<svg xmlns="http://www.w3.org/2000/svg" enable-background="new 0 0 24 24" viewBox="0 0 24 24"><path fill="#6563ff" d="M19.5,4.125c0.3451538,0,0.625-0.2798462,0.625-0.625S19.8451538,2.875,19.5,2.875S18.875,3.1548462,18.875,3.5S19.1548462,4.125,19.5,4.125z M19.5,12c-0.276123,0-0.5,0.223877-0.5,0.5v2.9326172l-2.6523438-2.6523438c-0.9743042-0.9716187-2.5502319-0.9746704-3.5283203-0.0068359l-0.9247437,0.9169922l-2.703186-2.7061157c-0.9790039-0.9701538-2.557251-0.9692383-3.5351562,0.0020142L3,13.6425781V6.5C3.0009155,5.671936,3.671936,5.0009155,4.5,5h11C15.776123,5,16,4.776123,16,4.5S15.776123,4,15.5,4h-11C3.119812,4.0012817,2.0012817,5.119812,2,6.5v13c0.0012817,1.380188,1.119812,2.4987183,2.5,2.5h13c1.380188-0.0012817,2.4987183-1.119812,2.5-2.5v-7C20,12.223877,19.776123,12,19.5,12z M17.5,21h-13c-0.828064-0.0009155-1.4990845-0.671936-1.5-1.5v-4.4433594l3.3632812-3.3632812c0.5875244-0.5817871,1.5339355-0.5822754,2.1220703-0.0009766l9.2713013,9.2814941C17.6728516,20.9884644,17.5878906,20.9998779,17.5,21z M19,19.5c-0.0004272,0.3637695-0.135376,0.692749-0.3508911,0.9523926l-6.046936-6.0535889l0.9222412-0.9154053c0.5870361-0.5794678,1.531311-0.5777588,2.1162109,0.0039062L19,16.8466797V19.5z M19.5,5C19.223877,5,19,5.223877,19,5.5v3.0005493C19.0001831,8.7765503,19.223999,9.0001831,19.5,9h0.0006104C19.7765503,8.9998169,20.0001831,8.776001,20,8.5v-3C20,5.223877,19.776123,5,19.5,5z"/></svg>