<svg xmlns="http://www.w3.org/2000/svg" enable-background="new 0 0 24 24" viewBox="0 0 24 24"><path fill="#6563ff" d="M14.5787964,11.5388184c-0.2822266-0.2259521-0.5893555-0.3933716-0.9047852-0.5339966c0.5558472-0.4751587,0.9159546-1.1724243,0.9168091-1.9608154v-0.000061c0-1.4309082-1.1599731-2.5908203-2.5908203-2.5908203c-1.4309082,0-2.5908203,1.1599731-2.5908203,2.5908203c0,0.7897339,0.3609009,1.4881592,0.9180908,1.9633789c-0.5838623,0.2593994-1.1221924,0.6411743-1.5490112,1.1743164C8.77771,12.182312,8.7771606,12.1830444,8.7766113,12.1837158c-0.1714478,0.2167358-0.1347656,0.5314331,0.0819702,0.7028809c0.2167358,0.1715088,0.5314331,0.1348267,0.7028809-0.0819092c0.1433716-0.178894,0.3059692-0.3414917,0.4848633-0.4848022c1.3467407-1.0789795,3.3131714-0.8619385,4.3921509,0.4848022c0.0949707,0.1192627,0.2391357,0.1886597,0.3916016,0.1884766c0.1134644,0.0001221,0.2235107-0.038269,0.3122559-0.1090088c0.2158813-0.1720581,0.2514038-0.4866333,0.0792847-0.7025146C15.0316772,11.9443359,14.8161011,11.7287598,14.5787964,11.5388184z M12,10.6347656c-0.8786011,0-1.5908203-0.7122192-1.5908203-1.5908203S11.1213989,7.453125,12,7.453125c0.8781128,0.0011597,1.5897217,0.7127686,1.5908203,1.5908813C13.5908203,9.9225464,12.87854,10.6347656,12,10.6347656z M18.0107422,4.4892578c-3.3196411-3.3196411-8.7018433-3.3196411-12.0214844,0s-3.3196411,8.7018433,0,12.0214844l5.6572266,5.65625C11.7401123,22.2609253,11.8673706,22.3136597,12,22.3134766c0.1326294,0.0001831,0.2598877-0.0525513,0.3535156-0.1464844l5.6572266-5.65625C21.3303833,13.1911011,21.3303833,7.8088989,18.0107422,4.4892578z M17.3037109,15.8037109L12,21.1064453l-5.3037109-5.3027344c-2.9291382-2.9291382-2.9291382-7.6782837,0-10.6074219s7.6782837-2.9291382,10.6074219,0S20.2328491,12.8745728,17.3037109,15.8037109z"/></svg>