<svg xmlns="http://www.w3.org/2000/svg" enable-background="new 0 0 24 24" viewBox="0 0 24 24"><path fill="#6563ff" d="M12,6C6.3925781,6,2,8.1962891,2,11c0,2.6870117,4.0380249,4.8105469,9.3098755,4.9831543l-1.1633911,1.1633301c-0.09375,0.09375-0.1464233,0.2208862-0.1464233,0.3534546C10,17.776062,10.223877,17.999939,10.5,18c0.1326294,0.0001831,0.2598267-0.0525513,0.3535156-0.1464844l2-2c0.000061-0.000061,0.000061-0.000061,0.0001221-0.0001221c0.1951904-0.1952515,0.1951294-0.5117188-0.0001221-0.7068481l-2-2c-0.1937866-0.1871338-0.5009155-0.1871338-0.6947021,0c-0.1986084,0.1918335-0.2041626,0.5083618-0.0123291,0.7069702l1.1296387,1.1295776C6.7211304,14.8126831,3,13.0596313,3,11c0-2.1680298,4.1210938-4,9-4s9,1.8319702,9,4c0,1.5888672-2.2470703,3.0712891-5.5908203,3.6885376c-0.2714844,0.0498657-0.4511719,0.3104248-0.4013672,0.5819702c0.0541382,0.2692261,0.3121948,0.4468994,0.5830078,0.4013672C19.484375,14.953125,22,13.1191406,22,11C22,8.1962891,17.6074219,6,12,6z"/></svg>