<svg xmlns="http://www.w3.org/2000/svg" enable-background="new 0 0 24 24" viewBox="0 0 24 24"><path fill="#6563ff" d="M20.7548828,15.7734375c-0.2475586-0.1229858-0.5479126-0.0219727-0.6708984,0.2255859c-0.8737793,1.7612305-2.300354,3.1878052-4.0615845,4.0615234c-4.4517212,2.2086182-9.8509521,0.3901978-12.0595703-4.0615234C1.7542725,11.5472412,3.5726929,6.1480103,8.0244141,3.9394531c4.4517212-2.2086182,9.8510132-0.3901978,12.0595703,4.0615234c0.123291,0.2456665,0.4215698,0.3459473,0.6682129,0.2246704c0.2480469-0.1219482,0.3502808-0.421936,0.2282715-0.6699829c-1.6884766-3.4025879-5.1593018-5.5543823-8.9577637-5.5537109c-5.5217896,0.0010376-9.9972534,4.4780884-9.9962158,9.9998779s4.4780884,9.9972534,9.9998779,9.9962158c3.8009644,0.0125732,7.2764282-2.1430664,8.9541016-5.5537109C21.1034546,16.1967773,21.0024414,15.8963623,20.7548828,15.7734375z M21.5,11.5H9.7069702l3.6270142-3.6270142c0.0024414-0.0023193,0.0048218-0.0046997,0.0071411-0.0071411c0.1932983-0.1972046,0.1900635-0.5137329-0.0071411-0.7069702c-0.1972046-0.1932983-0.5137329-0.1900635-0.7069702,0.0071411l-4.4805298,4.4805298c-0.000061,0-0.0001221,0.000061-0.0001221,0.0001221c-0.1951904,0.1951904-0.1951294,0.5117188,0.0001221,0.7068481l4.4805298,4.4804688c0.0936279,0.0939331,0.2208252,0.1466064,0.3534546,0.1464844v0.000061c0.1325684-0.000061,0.2597046-0.0526733,0.3534546-0.1464233c0.1953125-0.1952515,0.1953125-0.5118408,0.000061-0.7070923L9.7069702,12.5H21.5c0.276123,0,0.5-0.223877,0.5-0.5S21.776123,11.5,21.5,11.5z"/></svg>