<svg xmlns="http://www.w3.org/2000/svg" enable-background="new 0 0 24 24" viewBox="0 0 24 24"><path fill="#6563ff" d="M14,6.375c-0.3451538,0-0.625,0.2798462-0.625,0.625S13.6548462,7.625,14,7.625S14.625,7.3451538,14.625,7S14.3451538,6.375,14,6.375z M14,9.375c-0.3451538,0-0.625,0.2798462-0.625,0.625s0.2798462,0.625,0.625,0.625s0.625-0.2798462,0.625-0.625S14.3451538,9.375,14,9.375z M17,8.375c-0.3451538,0-0.625,0.2798462-0.625,0.625S16.6548462,9.625,17,9.625S17.625,9.3451538,17.625,9S17.3451538,8.375,17,8.375z M12,2C6.4771729,2,2,6.4771729,2,12s4.4771729,10,10,10c5.5201416-0.0064697,9.9935303-4.4798584,10-10C22,6.4771729,17.5228271,2,12,2z M12,21c-4.9705811,0-9-4.0294189-9-9s4.0294189-9,9-9c4.9683228,0.0054321,8.9945679,4.0316772,9,9C21,16.9705811,16.9705811,21,12,21z"/></svg>