<svg xmlns="http://www.w3.org/2000/svg" enable-background="new 0 0 24 24" viewBox="0 0 24 24"><path fill="#6563ff" d="M19.9882812,12.390625l-2.25-10C17.6866455,2.1624146,17.4840088,2.0002441,17.25,2H6.75C6.5159912,2.0002441,6.3133545,2.1624146,6.2617188,2.390625l-2.25,10c-0.0080566,0.0359497-0.012085,0.0726929-0.012085,0.1094971C3.9997559,12.7763672,4.2238159,13.0001221,4.5,13h4.8574829c0.0686646,0.4639282,0.1134033,0.9310913,0.1122437,1.4003906c0.0082397,2.5252686-0.9823608,4.9512939-2.7558594,6.7490234c-0.0918579,0.0934448-0.1433716,0.2192383-0.1434326,0.3502808C6.5703125,21.7758789,6.7941284,21.9998779,7.0703125,22h9.859375c0.1311035-0.000061,0.256897-0.0515747,0.3504028-0.1434326c0.1969604-0.1936035,0.199707-0.5101929,0.0061035-0.7071533c-1.7734985-1.7977295-2.7641602-4.2237549-2.7558594-6.7490234C14.5291748,13.9310913,14.5739136,13.4639282,14.6425781,13H17v2.5005493C17.0001831,15.7765503,17.223999,16.0001831,17.5,16h0.0006104C17.7765503,15.9998169,18.0001831,15.776001,18,15.5V13h1.5c0.0368652,0,0.0735474-0.0040283,0.1094971-0.012085C19.8790283,12.9275513,20.048645,12.6601562,19.9882812,12.390625z M15.8203125,21h-7.640625c1.489624-1.8765259,2.2971191-4.2036743,2.2900391-6.5996094C10.4709473,13.9313354,10.4287109,13.4644165,10.366333,13h3.267395c-0.0623779,0.4644165-0.1046753,0.9312744-0.1033936,1.4003906C13.5231934,16.7962646,14.3306885,19.1234741,15.8203125,21z M5.125,12l2.0253906-9h9.6992188L18.875,12H5.125z"/></svg>