<?xml version="1.0" encoding="utf-8"?>
<svg xmlns="http://www.w3.org/2000/svg" xmlns:xlink="http://www.w3.org/1999/xlink" style="margin: auto; background: none; display: block; shape-rendering: auto;" width="101px" height="101px" viewBox="0 0 100 100" preserveAspectRatio="xMidYMid">
<g transform="rotate(0 50 50)">
  <rect x="44.5" y="23.5" rx="5.5" ry="2.5" width="11" height="5" fill="#38cab3">
    <animate attributeName="opacity" values="1;0" keyTimes="0;1" dur="0.5952380952380952s" begin="-0.5291005291005292s" repeatCount="indefinite"></animate>
  </rect>
</g><g transform="rotate(40 50 50)">
  <rect x="44.5" y="23.5" rx="5.5" ry="2.5" width="11" height="5" fill="#38cab3">
    <animate attributeName="opacity" values="1;0" keyTimes="0;1" dur="0.5952380952380952s" begin="-0.46296296296296297s" repeatCount="indefinite"></animate>
  </rect>
</g><g transform="rotate(80 50 50)">
  <rect x="44.5" y="23.5" rx="5.5" ry="2.5" width="11" height="5" fill="#38cab3">
    <animate attributeName="opacity" values="1;0" keyTimes="0;1" dur="0.5952380952380952s" begin="-0.39682539682539686s" repeatCount="indefinite"></animate>
  </rect>
</g><g transform="rotate(120 50 50)">
  <rect x="44.5" y="23.5" rx="5.5" ry="2.5" width="11" height="5" fill="#38cab3">
    <animate attributeName="opacity" values="1;0" keyTimes="0;1" dur="0.5952380952380952s" begin="-0.3306878306878307s" repeatCount="indefinite"></animate>
  </rect>
</g><g transform="rotate(160 50 50)">
  <rect x="44.5" y="23.5" rx="5.5" ry="2.5" width="11" height="5" fill="#38cab3">
    <animate attributeName="opacity" values="1;0" keyTimes="0;1" dur="0.5952380952380952s" begin="-0.2645502645502646s" repeatCount="indefinite"></animate>
  </rect>
</g><g transform="rotate(200 50 50)">
  <rect x="44.5" y="23.5" rx="5.5" ry="2.5" width="11" height="5" fill="#38cab3">
    <animate attributeName="opacity" values="1;0" keyTimes="0;1" dur="0.5952380952380952s" begin="-0.19841269841269843s" repeatCount="indefinite"></animate>
  </rect>
</g><g transform="rotate(240 50 50)">
  <rect x="44.5" y="23.5" rx="5.5" ry="2.5" width="11" height="5" fill="#38cab3">
    <animate attributeName="opacity" values="1;0" keyTimes="0;1" dur="0.5952380952380952s" begin="-0.1322751322751323s" repeatCount="indefinite"></animate>
  </rect>
</g><g transform="rotate(280 50 50)">
  <rect x="44.5" y="23.5" rx="5.5" ry="2.5" width="11" height="5" fill="#38cab3">
    <animate attributeName="opacity" values="1;0" keyTimes="0;1" dur="0.5952380952380952s" begin="-0.06613756613756615s" repeatCount="indefinite"></animate>
  </rect>
</g><g transform="rotate(320 50 50)">
  <rect x="44.5" y="23.5" rx="5.5" ry="2.5" width="11" height="5" fill="#38cab3">
    <animate attributeName="opacity" values="1;0" keyTimes="0;1" dur="0.5952380952380952s" begin="0s" repeatCount="indefinite"></animate>
  </rect>
</g>
<!-- [ldio] generated by https://loading.io/ --></svg>